<svg width="16" height="16" fill="none" xmlns="http://www.w3.org/2000/svg"><circle cx="8" cy="8" r="8" fill="#CDEEC1"/><path clip-rule="evenodd" d="M9.375 5.938c0 .275-.225.5-.5.5a.501.501 0 01-.5-.5.5.5 0 011 0zM5 9.313c0-.7.55-1.25 1.25-1.25s1.25.55 1.25 1.25-.55 1.25-1.25 1.25S5 10.012 5 9.313zm1.25.874a.886.886 0 01-.875-.875c0-.475.4-.875.875-.875s.875.4.875.875-.4.875-.875.875zm2.05-3.1l-.6.6.55.575v1.55h-.5v-1.25l-.8-.7c-.1-.075-.15-.2-.15-.35 0-.125.05-.25.15-.35l.7-.7c.075-.1.2-.15.35-.15.15 0 .275.05.4.15l.475.475c.225.225.525.375.9.375v.5c-.525 0-.95-.2-1.275-.525l-.2-.2zm1.45.976c-.7 0-1.25.55-1.25 1.25s.55 1.25 1.25 1.25 1.25-.55 1.25-1.25-.55-1.25-1.25-1.25zm-.875 1.25c0 .474.4.874.875.874s.875-.4.875-.875-.4-.875-.875-.875-.875.4-.875.875z"/></svg>