<svg width="16" height="16" fill="none" xmlns="http://www.w3.org/2000/svg"><circle cx="8" cy="8" r="8" fill="#79DFFF"/><path d="M6.963 6.193c.427 0 .774-.317.774-.708v-.553c0-.443-.394-.803-.877-.803h-.67v1.356c0 .39.346.708.773.708z" fill="#fff"/><path d="M9.655 7.493l-.582-.257c-.5-.22-.893-.608-1.128-1.081-.21.342-.585.571-1.011.571a1.2 1.2 0 01-1.19-1.208v-1.39a.907.907 0 00-.484.805c0 .262-.21.475-.468.475h-.453a.213.213 0 00-.212.214v.345c0 .562.45 1.02 1.005 1.02h.34c.133 0 .241.11.241.245v.499c0 .446.16.867.453 1.196v1.243l-.088.18a1.35 1.35 0 00-.138.592v.198c0 .119.095.215.211.215h.695v-.215c0-.628.5-1.134 1.118-1.134h.015V9.99c0-.753.604-1.365 1.345-1.365.117 0 .211.096.211.215a.213.213 0 01-.211.215.93.93 0 00-.922.935v.23a.213.213 0 01-.211.214h-.227a.7.7 0 00-.695.705v.215h3.868a.213.213 0 00.211-.215v-1.026a2.86 2.86 0 00-1.693-2.621z" fill="#fff"/></svg>