<svg xmlns="http://www.w3.org/2000/svg">
<symbol id="icon-adverts" viewBox="0 0 16 16"><path fill-rule="evenodd" clip-rule="evenodd" d="M3.5 2a1.5 1.5 0 100 3h2.25a1.5 1.5 0 100-3H3.5zm6.75 9a1.5 1.5 0 000 3h2.25a1.5 1.5 0 000-3h-2.25z"/><path opacity=".3" fill-rule="evenodd" clip-rule="evenodd" d="M10.25 2a1.5 1.5 0 00-1.5 1.5V8a1.5 1.5 0 001.5 1.5h2.25A1.5 1.5 0 0014 8V3.5A1.5 1.5 0 0012.5 2h-2.25zM3.5 6.5A1.5 1.5 0 002 8v4.5A1.5 1.5 0 003.5 14h2.25a1.5 1.5 0 001.5-1.5V8a1.5 1.5 0 00-1.5-1.5H3.5z"/></symbol>
<symbol id="icon-alert" viewBox="0 0 16 16"><path opacity=".3" fill-rule="evenodd" clip-rule="evenodd" d="M8 14A6 6 0 108 2a6 6 0 000 12z"/><rect x="7.4" y="5" width="1.2" height="4.8" rx=".6"/><rect x="7.4" y="10.398" width="1.2" height="1.2" rx=".6"/></symbol>
<symbol id="icon-assets-annotation" viewBox="0 0 28 28"><rect opacity=".3" width="2.333" height="16.333" rx="1" transform="matrix(0 -1 -1 0 22.166 15.168)"/><path d="M14.826 20.176a1.167 1.167 0 01-1.65 1.65l-7-7a1.167 1.167 0 01-.035-1.613l6.416-7a1.167 1.167 0 011.72 1.577l-5.662 6.176 6.21 6.21z"/></symbol>
<symbol id="icon-assets-badge" viewBox="0 0 28 28"><path fill-rule="evenodd" clip-rule="evenodd" d="M11.628 23.883L4.11 16.365a2.097 2.097 0 010-2.957l9.438-9.279c.392-.386.92-.602 1.47-.602h7.53c1.159 0 2.098.94 2.098 2.097v7.51c0 .562-.226 1.101-.628 1.495l-9.423 9.254a2.097 2.097 0 01-2.967 0zM21.849 8.421a2.097 2.097 0 11-4.194 0 2.097 2.097 0 014.194 0z"/></symbol>
<symbol id="icon-assets-bgr" viewBox="0 0 28 28"><path fill-rule="evenodd" clip-rule="evenodd" d="M13.86 3.5L3.5 13.86v3.302L17.162 3.5H13.86zm8.902.093L3.593 22.761c.105.397.315.759.595 1.05.292.28.654.49 1.05.595l19.18-19.168a2.337 2.337 0 00-1.656-1.645zM3.5 5.833A2.34 2.34 0 015.833 3.5h2.334L3.5 8.167V5.833zM22.167 24.5c.641 0 1.225-.257 1.645-.688.431-.42.688-1.004.688-1.645v-2.334L19.833 24.5h2.334zm-8.027 0h-3.302L24.5 10.838v3.302L14.14 24.5z"/></symbol>
<symbol id="icon-assets-blob" viewBox="0 0 28 28"><path fill-rule="evenodd" clip-rule="evenodd" d="M20.653 7.605c-1.388-1.344-3.598-1.852-6.697-2.046-1.508-.091-2.948-.094-4.197.116-1.252.21-2.137.606-2.713 1.165l-.004.004c-.588.568-1.08 1.521-1.343 2.879-.26 1.342-.267 2.943-.008 4.615.26 1.681.769 3.324 1.46 4.608.713 1.321 1.48 2.016 2.13 2.254.65.234 1.639.184 3.07-.343 1.395-.513 2.902-1.364 4.417-2.297 1.508-.931 2.783-1.797 3.762-2.695.974-.894 1.544-1.721 1.791-2.543l.001-.003c.538-1.776-.186-4.278-1.669-5.714zM8.6 23.08c-2.614-.953-4.312-4.729-4.885-8.436-.573-3.707-.017-7.351 1.94-9.239 1.95-1.894 5.306-2.031 8.425-1.842 3.12.195 6.01.712 7.965 2.605 1.95 1.888 2.974 5.148 2.193 7.73-.776 2.577-3.362 4.476-6.42 6.364-3.063 1.888-6.599 3.765-9.218 2.818z"/></symbol>
<symbol id="icon-assets-bucket" viewBox="0 0 28 28"><path fill-rule="evenodd" clip-rule="evenodd" d="M22.392 10.36l-8.25-8.25a2.333 2.333 0 00-3.3 0l-8.25 8.25a4.667 4.667 0 000 6.6l4.95 4.95a4.667 4.667 0 006.6 0l8.25-8.25a2.333 2.333 0 000-3.3zm-18.15 1.65l8.25-8.25 8.25 8.25-2.025 2.025s-15.138 0-15.138-.019a6.787 6.787 0 01-.016-.218 2.328 2.328 0 01.68-1.788z"/><path opacity=".3" fill-rule="evenodd" clip-rule="evenodd" d="M23.334 25.665a3.5 3.5 0 003.5-3.5c0-1.933-3.5-5.833-3.5-5.833s-3.5 3.9-3.5 5.833a3.5 3.5 0 003.5 3.5z"/></symbol>
<symbol id="icon-assets-button" viewBox="0 0 28 28"><path fill-rule="evenodd" clip-rule="evenodd" d="M23.333 8.168H6.999a2.34 2.34 0 00-2.333 2.333v7c0 .595.226 1.14.596 1.553l1.944-1.553H7v-7h16.334v7H9.695l-.479 2.334h14.117a2.34 2.34 0 002.333-2.334v-7a2.34 2.34 0 00-2.333-2.333z"/><path fill-rule="evenodd" clip-rule="evenodd" d="M1.085 21.143L10.875 14 8.912 25.96l-.593.142-2.58-3.753-4.514-.615-.141-.592zm6.971 2.38l1.102-6.732-5.51 4.015 2.264.31.541.075.313.455 1.29 1.876z"/></symbol>
<symbol id="icon-assets-camera" viewBox="0 0 28 28"><path fill-rule="evenodd" clip-rule="evenodd" d="M5.5 8.168a2 2 0 00-2 2v10a2 2 0 002 2h17a2 2 0 002-2v-10a2 2 0 00-2-2h-17zm3.833 7a4.667 4.667 0 109.334 0 4.667 4.667 0 00-9.334 0z"/><rect opacity=".3" x="10.5" y="4.668" width="7" height="2.333" rx="1.167"/><path opacity=".3" fill-rule="evenodd" clip-rule="evenodd" d="M14 17.499a2.333 2.333 0 100-4.667 2.333 2.333 0 000 4.667z"/></symbol>
<symbol id="icon-assets-image" viewBox="0 0 28 28"><path fill-rule="evenodd" clip-rule="evenodd" d="M3.5 8.832a3 3 0 013-3h15a3 3 0 013 3v11.5a3 3 0 01-3 3h-15a3 3 0 01-3-3v-11.5zm2.333 11l5.25-7 5.25 7h-10.5zm16.334-7a3.5 3.5 0 11-7 0 3.5 3.5 0 017 0z"/></symbol>
<symbol id="icon-assets-logos" viewBox="0 0 28 28"><path opacity=".3" fill-rule="evenodd" clip-rule="evenodd" d="M5.833 3.5h16.333l4.667 5.833H1.166L5.833 3.5z"/><path fill-rule="evenodd" clip-rule="evenodd" d="M26.833 9.332l-12.834 14-12.833-14h25.667z"/></symbol>
<symbol id="icon-assets-mockups" viewBox="0 0 28 28"><path fill-rule="evenodd" clip-rule="evenodd" d="M4.666 11.287l8.027 4.635c.086.05.177.086.27.108v8.989l-7.724-4.571a1.167 1.167 0 01-.573-1.004v-8.157zm18.667-.123v8.28c0 .412-.218.794-.573 1.004l-7.724 4.57v-9.066l.056-.03 8.24-4.758z"/><path opacity=".3" fill-rule="evenodd" clip-rule="evenodd" d="M4.918 9.038c.098-.124.222-.228.366-.305l8.167-4.35a1.167 1.167 0 011.097 0l8.166 4.35c.112.059.21.135.295.223l-8.954 5.17a1.037 1.037 0 00-.162.116 1.043 1.043 0 00-.163-.116L4.918 9.038z"/></symbol>
<symbol id="icon-assets-pixabay" viewBox="0 0 28 28"><path d="M6.565 11.94a1.036 1.036 0 01-1.035-1.036H1.983c0 .572-.464 1.036-1.036 1.036H0V22.96h18.153V11.94H6.565zM5.53 15.202H1.985v-1.544H5.53v1.544zm6.235 6.106a3.816 3.816 0 01-3.812-3.814c0-2.102 1.71-3.725 3.812-3.725 2.101 0 3.811 1.622 3.811 3.725a3.816 3.816 0 01-3.811 3.814zm2.049-3.814c0 1.13-.92 2.05-2.05 2.05a2.052 2.052 0 01-2.048-2.05c0-1.13.92-2.05 2.049-2.05 1.13 0 2.049.92 2.049 2.05zM28 11.084l-4.585 11.85-3.691-1.43v-2.02l2.615 1.013 3.226-8.337-12.09-4.685-1.12 2.896h-2.018L12.4 5.039 28 11.085z"/></symbol>
<symbol id="icon-assets-plugins" viewBox="0 0 16 16"><rect opacity=".3" x="2" y="2" width="3" height="3" rx="1"/><path fill-rule="evenodd" clip-rule="evenodd" d="M7.5 2a1 1 0 00-1 1v1a1 1 0 001 1h1a1 1 0 001-1V3a1 1 0 00-1-1h-1zM3 6.5a1 1 0 00-1 1v1a1 1 0 001 1h1a1 1 0 001-1v-1a1 1 0 00-1-1H3zm3.5 1a1 1 0 011-1h1a1 1 0 011 1v1a1 1 0 01-1 1h-1a1 1 0 01-1-1v-1zM12 2a1 1 0 00-1 1v1a1 1 0 001 1h1a1 1 0 001-1V3a1 1 0 00-1-1h-1zm-1 5.5a1 1 0 011-1h1a1 1 0 011 1v1a1 1 0 01-1 1h-1a1 1 0 01-1-1v-1zM3 11a1 1 0 00-1 1v1a1 1 0 001 1h1a1 1 0 001-1v-1a1 1 0 00-1-1H3zm3.5 1a1 1 0 011-1h1a1 1 0 011 1v1a1 1 0 01-1 1h-1a1 1 0 01-1-1v-1zm5.5-1a1 1 0 00-1 1v1a1 1 0 001 1h1a1 1 0 001-1v-1a1 1 0 00-1-1h-1z"/></symbol>
<symbol id="icon-assets-projects" viewBox="0 0 28 28"><path opacity=".3" fill-rule="evenodd" clip-rule="evenodd" d="M2.334 23.001a1.5 1.5 0 001.5 1.5h20.333a1.5 1.5 0 001.5-1.5V9.668a1.5 1.5 0 00-1.5-1.5h-12.5l-3.06-3.06a1.5 1.5 0 00-1.061-.44H3.834a1.5 1.5 0 00-1.5 1.5v16.833z"/><path opacity=".3" fill-rule="evenodd" clip-rule="evenodd" d="M4.666 22.165l7-9.333 7 9.333h-14z"/><path fill-rule="evenodd" clip-rule="evenodd" d="M12.834 22.165l4.667-5.833 4.666 5.833h-9.333z"/><path opacity=".3" fill-rule="evenodd" clip-rule="evenodd" d="M21 14a1.75 1.75 0 100-3.5 1.75 1.75 0 000 3.5z"/></symbol>
<symbol id="icon-assets-smartgroups" viewBox="0 0 17 16"><path opacity=".3" fill-rule="evenodd" clip-rule="evenodd" d="M1.436 12.501a1.5 1.5 0 001.5 1.5h10.333a1.5 1.5 0 001.5-1.5V6.168a1.5 1.5 0 00-1.5-1.5h-6.5l-1.56-1.56a1.5 1.5 0 00-1.061-.44H2.936a1.5 1.5 0 00-1.5 1.5v8.333z"/><rect x="4.609" y="9.418" width="2.095" height="2.095" rx=".75" transform="rotate(-45 4.61 9.418)"/><rect x="8.801" y="9.418" width="2.095" height="2.095" rx=".75" transform="rotate(-45 8.8 9.418)"/><rect x="6.705" y="11.512" width="2.095" height="2.095" rx=".75" transform="rotate(-45 6.705 11.512)"/><rect x="6.705" y="7.324" width="2.095" height="2.095" rx=".75" transform="rotate(-45 6.705 7.324)"/></symbol>
<symbol id="icon-assets-star" viewBox="0 0 28 28"><path fill-rule="evenodd" clip-rule="evenodd" d="M14 21l-4.766 2.505a1.167 1.167 0 01-1.693-1.23l.91-5.306-3.855-3.758a1.167 1.167 0 01.647-1.99l5.328-.774 2.382-4.828a1.167 1.167 0 012.093 0l2.382 4.828 5.328.774a1.167 1.167 0 01.646 1.99l-3.855 3.758.91 5.306a1.167 1.167 0 01-1.692 1.23L13.999 21z"/></symbol>
<symbol id="icon-assets-templates" viewBox="0 0 24 24"><rect x="2" y="2" width="8.749" height="8.749" rx="1.5"/><path opacity=".3" fill-rule="evenodd" clip-rule="evenodd" d="M13.249 3.5a1.5 1.5 0 011.5-1.5h5.749a1.5 1.5 0 011.5 1.5v5.75a1.5 1.5 0 01-1.5 1.5h-5.75a1.5 1.5 0 01-1.5-1.5V3.5zM2 14.749a1.5 1.5 0 011.5-1.5h5.75a1.5 1.5 0 011.5 1.5v5.749a1.5 1.5 0 01-1.5 1.5H3.5a1.5 1.5 0 01-1.5-1.5v-5.75zm12.749-1.5a1.5 1.5 0 00-1.5 1.5v5.749a1.5 1.5 0 001.5 1.5h5.749a1.5 1.5 0 001.5-1.5v-5.75a1.5 1.5 0 00-1.5-1.5h-5.75z"/></symbol>
<symbol id="icon-assets-text" viewBox="0 0 28 28"><path fill-rule="evenodd" clip-rule="evenodd" d="M.21 22.167L8.283 5.414l8.074 16.753H14.07l-2.053-4.34H4.55l-2.053 4.34H.21zM8.283 9.94l-2.8 5.927h5.6l-2.8-5.927z"/><path opacity=".3" fill-rule="evenodd" clip-rule="evenodd" d="M24.897 21v1.167h2.007V10.5h-2.007v1.167c-.98-.887-2.287-1.354-3.71-1.354-3.43 0-5.95 2.637-5.95 6.02 0 3.384 2.52 6.02 5.95 6.02 1.423 0 2.73-.466 3.71-1.353zm0-2.426c-.677 1.096-1.984 1.89-3.664 1.89-2.286 0-3.92-1.82-3.92-4.13 0-2.31 1.634-4.13 3.92-4.13 1.68 0 2.987.793 3.664 1.89v4.48z"/></symbol>
<symbol id="icon-assets-uploads" viewBox="0 0 28 28"><path opacity=".3" fill-rule="evenodd" clip-rule="evenodd" d="M2.334 23.001a1.5 1.5 0 001.5 1.5h20.333a1.5 1.5 0 001.5-1.5V9.668a1.5 1.5 0 00-1.5-1.5h-12.5l-3.06-3.06a1.5 1.5 0 00-1.061-.44H3.834a1.5 1.5 0 00-1.5 1.5v16.833z"/><path fill-rule="evenodd" clip-rule="evenodd" d="M17.931 15.792a.5.5 0 00-.382-.823h-2.462v-2.426a.5.5 0 00-.5-.5h-1.36a.5.5 0 00-.5.5v2.426h-2.463a.5.5 0 00-.381.823l3.642 4.302a.5.5 0 00.764 0l3.642-4.302z"/></symbol>
<symbol id="icon-bell" viewBox="0 0 16 16"><path fill-rule="evenodd" clip-rule="evenodd" d="M8 2a3.53 3.53 0 00-3.529 3.53v2.823H3.412a1.059 1.059 0 000 2.118h9.177a1.059 1.059 0 100-2.118H11.53V5.529A3.53 3.53 0 008 2z"/><rect opacity=".3" x="6.588" y="11.176" width="2.824" height="2.824" rx="1.412"/></symbol>
<symbol id="icon-bg-remover" viewBox="0 0 16 16"><path d="M7.066 10.488a1.5 1.5 0 001.868 0l3.812-3.035a1.07 1.07 0 00.002-1.677L8.934 2.743a1.5 1.5 0 00-1.867 0L3.249 5.779a1.07 1.07 0 000 1.674l3.817 3.035z"/><path opacity=".3" fill-rule="evenodd" clip-rule="evenodd" d="M8.927 12.162a1.5 1.5 0 01-1.867 0L3.705 9.495a.584.584 0 10-.719.921l4.102 3.137a1.5 1.5 0 001.822 0l4.1-3.134a.589.589 0 10-.724-.928l-3.359 2.671z"/></symbol>
<symbol id="icon-brand" viewBox="0 0 16 16"><path opacity=".3" fill-rule="evenodd" clip-rule="evenodd" d="M14.001 8.852c0-.123-.1-.223-.223-.223H5.16a2.526 2.526 0 100 5.053h8.62c.122 0 .222-.1.222-.223V8.852zm-8.21 2.303a1.263 1.263 0 11-2.527 0 1.263 1.263 0 012.527 0z"/><path opacity=".3" fill-rule="evenodd" clip-rule="evenodd" d="M9.185 3.284a.223.223 0 00-.315 0L2.775 9.379a2.526 2.526 0 003.573 3.572l6.095-6.094a.223.223 0 000-.315L9.184 3.284zm-3.396 7.87a1.263 1.263 0 11-2.526 0 1.263 1.263 0 012.526 0z"/><path fill-rule="evenodd" clip-rule="evenodd" d="M2.223 2.313c-.123 0-.223.1-.223.222v8.62a2.526 2.526 0 105.053 0v-8.62c0-.123-.1-.223-.223-.223H2.223zm3.566 8.842a1.263 1.263 0 11-2.526 0 1.263 1.263 0 012.526 0z"/></symbol>
<symbol id="icon-bubble" viewBox="0 0 16 16"><path opacity=".3" fill-rule="evenodd" clip-rule="evenodd" d="M4 2.613a2 2 0 00-2 2v5a2 2 0 002 2h2.21l.879 1.326a1 1 0 001.708-.069l.695-1.257H12a2 2 0 002-2v-5a2 2 0 00-2-2H4z"/><path fill-rule="evenodd" clip-rule="evenodd" d="M4.4 5.013h5.4a.6.6 0 110 1.2H4.4a.6.6 0 110-1.2zm0 2.4h3a.6.6 0 110 1.2h-3a.6.6 0 010-1.2z"/></symbol>
<symbol id="icon-card" viewBox="0 0 16 16"><rect opacity=".3" x="2" y="3.801" width="12" height="8.4" rx="2"/><path d="M2 5.602h12v1.8H2z"/><rect opacity=".3" x="10.4" y="9.199" width="2.4" height="1.2" rx=".6"/></symbol>
<symbol id="icon-cog" viewBox="0 0 16 16"><path opacity=".3" d="M12.415 6.5h.085a1.5 1.5 0 010 3h-.043a.325.325 0 00-.297.197.325.325 0 00.059.36l.03.03a1.5 1.5 0 11-2.123 2.122l-.026-.027a.327.327 0 00-.363-.062.324.324 0 00-.197.295v.085a1.5 1.5 0 01-3 0 .35.35 0 00-.242-.343.323.323 0 00-.354.062l-.03.03a1.5 1.5 0 11-2.123-2.123l.027-.026a.327.327 0 00.062-.363.324.324 0 00-.295-.197H3.5a1.5 1.5 0 110-3 .35.35 0 00.343-.242.323.323 0 00-.062-.354l-.03-.03A1.5 1.5 0 115.875 3.79l.026.027a.325.325 0 00.358.065l.072-.016a.324.324 0 00.17-.282V3.5a1.5 1.5 0 113 0v.043c0 .13.078.246.202.3a.323.323 0 00.354-.062l.03-.03a1.5 1.5 0 112.123 2.123l-.027.026a.325.325 0 00-.065.358l.016.072c.056.104.164.17.282.17z"/><path fill-rule="evenodd" clip-rule="evenodd" d="M8 10a2 2 0 100-4 2 2 0 000 4z"/></symbol>
<symbol id="icon-colors" viewBox="0 0 24 24"><path opacity=".3" fill-rule="evenodd" clip-rule="evenodd" d="M4 15a5 5 0 008 4.001 5 5 0 100-8 5 5 0 00-8 4zm9.334-2.495c.424.734.666 1.587.666 2.496s-.242 1.76-.666 2.495a3 3 0 100-4.991z"/><path fill-rule="evenodd" clip-rule="evenodd" d="M12 14a5 5 0 100-10 5 5 0 000 10z"/></symbol>
<symbol id="icon-dashboard" viewBox="0 0 16 16"><rect opacity=".3" x="2" y="2" width="12" height="12" rx="6"/><path fill-rule="evenodd" clip-rule="evenodd" d="M4.501 9.534A.6.6 0 015.5 8.87c.694 1.041 1.513 1.533 2.5 1.533.988 0 1.807-.492 2.501-1.533a.6.6 0 01.999.665c-.906 1.36-2.087 2.068-3.5 2.068-1.412 0-2.593-.709-3.499-2.068z"/></symbol>
<symbol id="icon-ebooks" viewBox="0 0 20 20"><path fill-rule="evenodd" clip-rule="evenodd" d="M10.8 14.929c0 .363.378.611.72.489 1.044-.374 3.167-1.017 6.017-1.28a.505.505 0 00.463-.5V4.995a.471.471 0 00-.499-.477c-1.07.06-3.708.32-6.403 1.453a.484.484 0 00-.298.448v8.51z"/><path opacity=".3" fill-rule="evenodd" clip-rule="evenodd" d="M9.2 14.929c0 .363-.378.611-.72.489-1.044-.374-3.167-1.017-6.017-1.28a.505.505 0 01-.463-.5V4.995c0-.276.223-.493.499-.477 1.07.06 3.708.32 6.403 1.453a.484.484 0 01.298.448v8.51z"/></symbol>
<symbol id="icon-export" viewBox="0 0 16 16"><path opacity=".3" d="M6.76 3.148a.535.535 0 010 1.07H4.14c-.591 0-1.07.48-1.07 1.07v6.419c0 .59.479 1.07 1.07 1.07h6.419c.59 0 1.07-.48 1.07-1.07v-1.07a.535.535 0 011.07 0v1.07a2.14 2.14 0 01-2.14 2.14h-6.42A2.14 2.14 0 012 11.707V5.288a2.14 2.14 0 012.14-2.14h2.62z"/><path d="M4.677 9.513c0-.408-.087-2.018 1.183-3.296.855-.86 2.134-1.009 3.664-1.077V3.85a.75.75 0 011.254-.556l2.616 2.373a.75.75 0 01.006 1.106l-2.617 2.423a.75.75 0 01-1.26-.55V7.378c-.97.027-1.663.089-2.291.289-1.215.387-1.936 2.044-2.13 2.55a.227.227 0 01-.21.146.216.216 0 01-.217-.217l.002-.633z"/></symbol>
<symbol id="icon-folder-heart" viewBox="0 0 16 16"><path opacity=".3" fill-rule="evenodd" clip-rule="evenodd" d="M2 11.598a1.5 1.5 0 001.5 1.5h9a1.5 1.5 0 001.5-1.5v-5.4a1.5 1.5 0 00-1.5-1.5H6.8l-1.36-1.36a1.5 1.5 0 00-1.061-.44H3.5a1.5 1.5 0 00-1.5 1.5v7.2z"/><path d="M9.41 6.797c-.483 0-1.048.547-1.35.9-.303-.353-.868-.9-1.35-.9-.855 0-1.35.667-1.35 1.515 0 1.41 2.7 2.985 2.7 2.985s2.7-1.575 2.7-2.925c0-.849-.496-1.575-1.35-1.575z"/></symbol>
<symbol id="icon-folder-lock" viewBox="0 0 16 16"><path opacity=".3" fill-rule="evenodd" clip-rule="evenodd" d="M1.334 12.501a1.5 1.5 0 001.5 1.5h10.333a1.5 1.5 0 001.5-1.5V6.168a1.5 1.5 0 00-1.5-1.5h-6.5l-1.56-1.56a1.5 1.5 0 00-1.061-.44H2.834a1.5 1.5 0 00-1.5 1.5v8.333z"/><path fill-rule="evenodd" clip-rule="evenodd" d="M6.333 8.335a1.667 1.667 0 113.333 0v.39a1 1 0 01.667.943v1.333a1 1 0 01-1 1H6.666a1 1 0 01-1-1V9.668a1 1 0 01.667-.943v-.39zm1.666-1a1 1 0 00-1 1v.333h2v-.333a1 1 0 00-1-1z"/></symbol>
<symbol id="icon-folder-plus" viewBox="0 0 16 16"><path opacity=".3" fill-rule="evenodd" clip-rule="evenodd" d="M2 11.598a1.5 1.5 0 001.5 1.5h9a1.5 1.5 0 001.5-1.5v-5.4a1.5 1.5 0 00-1.5-1.5H6.8l-1.36-1.36a1.5 1.5 0 00-1.061-.44H3.5a1.5 1.5 0 00-1.5 1.5v7.2z"/><path fill-rule="evenodd" clip-rule="evenodd" d="M7.4 8.3V7.1a.6.6 0 011.2 0v1.2h1.2a.6.6 0 110 1.2H8.6v1.2a.6.6 0 11-1.2 0V9.5H6.2a.6.6 0 010-1.2h1.2z"/></symbol>
<symbol id="icon-folder-star" viewBox="0 0 17 16"><path opacity=".3" fill-rule="evenodd" clip-rule="evenodd" d="M1.834 12.5a1.5 1.5 0 001.5 1.5h10.333a1.5 1.5 0 001.5-1.5V6.167a1.5 1.5 0 00-1.5-1.5h-6.5l-1.56-1.56a1.5 1.5 0 00-1.061-.44H3.334a1.5 1.5 0 00-1.5 1.5V12.5z"/><path fill-rule="evenodd" clip-rule="evenodd" d="M8.5 11.485l-1.465.805a.351.351 0 01-.485-.157.39.39 0 01-.036-.238l.28-1.705-1.186-1.208a.387.387 0 01-.006-.53.354.354 0 01.205-.11l1.639-.248.732-1.552a.352.352 0 01.644 0l.732 1.552 1.639.249c.196.03.332.22.303.424a.38.38 0 01-.104.215l-1.186 1.208.28 1.705a.374.374 0 01-.293.433.345.345 0 01-.228-.038L8.5 11.485z"/></symbol>
<symbol id="icon-folder-team" viewBox="0 0 16 16"><path opacity=".3" fill-rule="evenodd" clip-rule="evenodd" d="M2.332 13.997h11.333a1 1 0 001-1V5.664a1 1 0 00-1-1h-7L4.96 2.957a1 1 0 00-.708-.293H2.332a1 1 0 00-1 1v9.333a1 1 0 001 1z"/><path opacity=".3" fill-rule="evenodd" clip-rule="evenodd" d="M5.139 7.444a1.444 1.444 0 102.888 0 1.444 1.444 0 00-2.888 0zM8.75 8.888a1.083 1.083 0 102.166 0 1.083 1.083 0 00-2.166 0z"/><path fill-rule="evenodd" clip-rule="evenodd" d="M6.578 9.613c-1.705 0-3.104.876-3.244 2.6-.007.094.172.289.263.289H9.56c.271 0 .276-.219.271-.29-.105-1.77-1.526-2.599-3.254-2.599zm5.227 2.892h-1.39c0-.813-.269-1.563-.721-2.166 1.228.015 2.231.637 2.307 1.95.003.053 0 .216-.196.216z"/></symbol>
<symbol id="icon-folder-user" viewBox="0 0 17 16"><path opacity=".3" fill-rule="evenodd" clip-rule="evenodd" d="M1.834 12.5a1.5 1.5 0 001.5 1.5h10.333a1.5 1.5 0 001.5-1.5V6.167a1.5 1.5 0 00-1.5-1.5h-6.5l-1.56-1.56a1.5 1.5 0 00-1.061-.44H3.334a1.5 1.5 0 00-1.5 1.5V12.5z"/><path opacity=".3" fill-rule="evenodd" clip-rule="evenodd" d="M8.5 8.667A1.333 1.333 0 118.5 6a1.333 1.333 0 010 2.667zM5.166 12.333c.144-1.989 1.579-3 3.327-3 1.774 0 3.23.956 3.339 3 .004.082 0 .334-.278.334H5.435c-.092 0-.277-.226-.269-.334z"/></symbol>
<symbol id="icon-folder" viewBox="0 0 16 16"><path opacity=".3" fill-rule="evenodd" clip-rule="evenodd" d="M2 11.598a1.5 1.5 0 001.5 1.5h9a1.5 1.5 0 001.5-1.5v-5.4a1.5 1.5 0 00-1.5-1.5H6.8l-1.36-1.36a1.5 1.5 0 00-1.061-.44H3.5a1.5 1.5 0 00-1.5 1.5v7.2z"/></symbol>
<symbol id="icon-graph" viewBox="0 0 20 20"><path opacity=".3" fill-rule="evenodd" clip-rule="evenodd" d="M3.543 11.667a6.667 6.667 0 107.29-8.282v8.282h-7.29z"/><path fill-rule="evenodd" clip-rule="evenodd" d="M9.167 8.333V2.5a6.668 6.668 0 00-6.615 5.833h6.615z"/></symbol>
<symbol id="icon-hero" viewBox="0 0 20 20"><rect x="2" y="3.263" width="16" height="3.368" rx="1"/><rect opacity=".3" x="2" y="8.316" width="16" height="8.421" rx="1"/></symbol>
<symbol id="icon-layers" viewBox="0 0 16 16"><path d="M7.066 10.488a1.5 1.5 0 001.868 0l3.812-3.035a1.07 1.07 0 00.002-1.677L8.934 2.743a1.5 1.5 0 00-1.868 0L3.25 5.779a1.07 1.07 0 00-.001 1.674l3.818 3.035z"/><path opacity=".3" fill-rule="evenodd" clip-rule="evenodd" d="M8.927 12.162a1.5 1.5 0 01-1.867 0L3.704 9.495a.584.584 0 10-.718.921l4.102 3.137a1.5 1.5 0 001.822 0l4.1-3.134a.589.589 0 10-.724-.928l-3.36 2.671z"/></symbol>
<symbol id="icon-lightning" viewBox="0 0 20 20"><path fill-rule="evenodd" clip-rule="evenodd" d="M9.167 15.856c0 .742.962 1.034 1.374.416L15.056 9.5a.75.75 0 00-.624-1.166h-3.598v-4.19c0-.741-.963-1.033-1.374-.415L4.944 10.5a.75.75 0 00.624 1.166h3.599v4.19z" fill="#6775F8"/></symbol>
<symbol id="icon-locked" viewBox="0 0 16 16"><path fill-rule="evenodd" clip-rule="evenodd" d="M4.471 5.53a3.53 3.53 0 117.059 0V6.94h.118a2 2 0 012 2V12a2 2 0 01-2 2H4.354a2 2 0 01-2-2V8.941a2 2 0 012-2h.117V5.53zm3.53-2.118c-1.17 0-2.118.948-2.118 2.117v1.412h4.235V5.53c0-1.17-.948-2.117-2.117-2.117z"/></symbol>
<symbol id="icon-logo-maker" viewBox="0 0 16 16"><path opacity=".3" fill-rule="evenodd" clip-rule="evenodd" d="M2.673 6.939a1.5 1.5 0 000 2.121l.524.525a1.5 1.5 0 002.122 0l.524-.525a1.5 1.5 0 000-2.121l-.524-.525a1.5 1.5 0 00-2.122 0l-.524.525zm7.483 0a1.5 1.5 0 000 2.121l.525.525a1.5 1.5 0 002.12 0l.525-.525a1.5 1.5 0 000-2.121l-.524-.525a1.5 1.5 0 00-2.121 0l-.525.525z"/><path fill-rule="evenodd" clip-rule="evenodd" d="M6.414 3.198a1.5 1.5 0 000 2.12l.524.525a1.5 1.5 0 002.122 0l.524-.524a1.5 1.5 0 000-2.121l-.524-.525a1.5 1.5 0 00-2.122 0l-.524.525zm0 7.483a1.5 1.5 0 000 2.121l.524.525a1.5 1.5 0 002.122 0l.524-.525a1.5 1.5 0 000-2.121l-.524-.524a1.5 1.5 0 00-2.122 0l-.524.524z"/></symbol>
<symbol id="icon-logout" viewBox="0 0 16 16"><rect opacity=".3" x="10" y="7.333" width="1.333" height="8" rx=".667" transform="rotate(90 10 7.333)"/><path opacity=".3" d="M6.67 4.667a.667.667 0 11-1.332 0V4a2.666 2.666 0 012.666-2.667H12A2.666 2.666 0 0114.667 4v8A2.666 2.666 0 0112 14.667H8A2.666 2.666 0 015.334 12v-.667a.667.667 0 111.332 0V12c0 .736.597 1.333 1.333 1.333h4.002c.736 0 1.333-.597 1.333-1.333V4c0-.736-.597-1.333-1.333-1.333H8.004c-.736 0-1.333.597-1.333 1.333v.667z"/><path d="M8.195 6.471a.667.667 0 11.943-.942l2 2c.26.26.26.682 0 .942l-2 2a.667.667 0 11-.943-.942L9.724 8 8.195 6.471z"/></symbol>
<symbol id="icon-marketplace" viewBox="0 0 20 20"><path opacity=".3" d="M10 4.158L6.436 8.434a.842.842 0 11-1.294-1.078l4.211-5.053a.842.842 0 011.294 0l4.21 5.053a.842.842 0 01-1.293 1.078L10 4.158z"/><path fill-rule="evenodd" clip-rule="evenodd" d="M3.842 7.895a1 1 0 00-1 1V15a3 3 0 003 3h8.316a3 3 0 003-3V8.895a1 1 0 00-1-1H3.842zm7.842 5.053a1.684 1.684 0 11-3.368 0 1.684 1.684 0 013.368 0z"/></symbol>
<symbol id="icon-mockups" viewBox="0 0 20 20"><path fill-rule="evenodd" clip-rule="evenodd" d="M3.333 8.062l5.734 3.31a.741.741 0 00.192.078v6.42l-5.517-3.265a.833.833 0 01-.409-.717V8.062zm13.333-.088v5.914a.833.833 0 01-.409.717L10.74 17.87v-6.476a.775.775 0 00.04-.021l5.886-3.399z"/><path opacity=".3" fill-rule="evenodd" clip-rule="evenodd" d="M3.514 6.456a.833.833 0 01.261-.218L9.608 3.13a.833.833 0 01.784 0l5.833 3.107c.08.042.15.096.21.16L10.04 10.09a.739.739 0 00-.116.082.74.74 0 00-.116-.082L3.514 6.456z"/></symbol>
<symbol id="icon-plugins" viewBox="0 0 16 16"><rect x="2" y="2" width="5.25" height="5.25" rx="1.5"/><path opacity=".3" fill-rule="evenodd" clip-rule="evenodd" d="M8.75 3.5a1.5 1.5 0 011.5-1.5h2.25A1.5 1.5 0 0114 3.5v2.25a1.5 1.5 0 01-1.5 1.5h-2.25a1.5 1.5 0 01-1.5-1.5V3.5zM2 10.25a1.5 1.5 0 011.5-1.5h2.25a1.5 1.5 0 011.5 1.5v2.25a1.5 1.5 0 01-1.5 1.5H3.5A1.5 1.5 0 012 12.5v-2.25zm8.25-1.5a1.5 1.5 0 00-1.5 1.5v2.25a1.5 1.5 0 001.5 1.5h2.25a1.5 1.5 0 001.5-1.5v-2.25a1.5 1.5 0 00-1.5-1.5h-2.25z"/></symbol>
<symbol id="icon-print" viewBox="0 0 20 20"><path fill-rule="evenodd" clip-rule="evenodd" d="M4.5 5a2 2 0 00-2 2v5.167a2 2 0 002 2h2.167v3.166a1 1 0 001 1h4.666a1 1 0 001-1v-3.166H15.5a2 2 0 002-2V7a2 2 0 00-2-2h-11zm10.083 4.167a1.25 1.25 0 100-2.5 1.25 1.25 0 000 2.5zm-2.916 2.5H8.333v5h3.334v-5z"/><rect opacity=".3" x="6.667" y="1.667" width="6.667" height="1.667" rx=".833"/></symbol>
<symbol id="icon-provider-icons8" viewBox="0 0 28 28"><path fill-rule="evenodd" clip-rule="evenodd" d="M4.158 4.16h9.84v19.681h-9.84V4.161zm1.666 18.016h6.51V5.826h-6.51v16.35z"/><path fill-rule="evenodd" clip-rule="evenodd" d="M21.857 14.974a4.92 4.92 0 00-2.939-.973 4.92 4.92 0 100-9.842 4.92 4.92 0 000 9.842 4.92 4.92 0 102.939.973zm-2.939-2.639a3.255 3.255 0 100-6.51 3.255 3.255 0 000 6.51zm0 9.84a3.255 3.255 0 100-6.51 3.255 3.255 0 000 6.51z"/></symbol>
<symbol id="icon-provider-nounproject" viewBox="0 0 28 28"><path fill-rule="evenodd" clip-rule="evenodd" d="M17.61 11.601l-1.41-1.39-2.459 2.42-2.482-2.42-1.387 1.39L12.33 14l-2.457 2.399 1.387 1.389 2.482-2.421 2.46 2.42 1.41-1.388-2.457-2.4 2.456-2.397zm-9.793 4.562c1.212-1.71.777-4.06-.971-5.246-1.748-1.186-4.148-.76-5.36.951-1.21 1.712-.776 4.06.973 5.247 1.748 1.186 4.147.76 5.358-.951zM27.2 10.211h-7.738v7.575H27.2v-7.575z"/></symbol>
<symbol id="icon-provider-pexels" viewBox="0 0 28 28"><path d="M8.13 20.777h5.561v-5.402h1.68a4.499 4.499 0 100-8.996H8.13v14.398zm8.44 2.88H5.25V3.5h10.121a7.377 7.377 0 011.2 14.657v5.5z"/></symbol>
<symbol id="icon-provider-photocreator" viewBox="0 0 28 28"><path opacity=".99" fill-rule="evenodd" clip-rule="evenodd" d="M4.496 4.496h19.01v19.008H4.496V4.496zm1.64 1.64v15.728h15.73V6.136H6.136z"/><path fill-rule="evenodd" clip-rule="evenodd" d="M14 10.77a3.18 3.18 0 100 6.359 3.18 3.18 0 000-6.36zm-4.82 3.179a4.82 4.82 0 119.64 0 4.82 4.82 0 01-9.64 0z"/></symbol>
<symbol id="icon-provider-pixabay" viewBox="0 0 28 28"><path d="M6.565 11.94a1.036 1.036 0 01-1.035-1.036H1.983c0 .572-.464 1.036-1.036 1.036H0V22.96h18.153V11.94H6.565zM5.53 15.202H1.985v-1.544H5.53v1.544zm6.235 6.106a3.816 3.816 0 01-3.812-3.814c0-2.102 1.71-3.725 3.812-3.725 2.101 0 3.811 1.622 3.811 3.725a3.816 3.816 0 01-3.811 3.814zm2.049-3.814c0 1.13-.92 2.05-2.05 2.05a2.052 2.052 0 01-2.048-2.05c0-1.13.92-2.05 2.049-2.05 1.13 0 2.049.92 2.049 2.05zM28 11.084l-4.585 11.85-3.691-1.43v-2.02l2.615 1.013 3.226-8.337-12.09-4.685-1.12 2.896h-2.018L12.4 5.039 28 11.085z"/></symbol>
<symbol id="icon-share" viewBox="0 0 16 16"><path opacity=".3" d="M6.76 3.147a.535.535 0 010 1.07H4.14c-.591 0-1.07.479-1.07 1.07v6.419c0 .59.479 1.07 1.07 1.07h6.419c.59 0 1.07-.48 1.07-1.07v-1.07a.535.535 0 011.07 0v1.07a2.14 2.14 0 01-2.14 2.14h-6.42A2.14 2.14 0 012 11.705v-6.42a2.14 2.14 0 012.14-2.139h2.62z"/><path d="M4.677 9.511c0-.408-.087-2.018 1.183-3.295.855-.86 2.134-1.01 3.664-1.077V3.848a.75.75 0 011.254-.556l2.616 2.374a.75.75 0 01.006 1.106l-2.617 2.422a.75.75 0 01-1.26-.55V7.377c-.97.027-1.663.088-2.291.288-1.215.387-1.936 2.045-2.13 2.55a.227.227 0 01-.21.146.216.216 0 01-.217-.217l.002-.633z"/></symbol>
<symbol id="icon-team" viewBox="0 0 16 16"><path opacity=".3" fill-rule="evenodd" clip-rule="evenodd" d="M4.5 5.5a2 2 0 104 0 2 2 0 00-4 0zm5 2a1.5 1.5 0 103 0 1.5 1.5 0 00-3 0z"/><path fill-rule="evenodd" clip-rule="evenodd" d="M6.492 8.5C4.13 8.5 2.194 9.713 2 12.1c-.01.13.238.4.364.4h8.26c.375 0 .38-.302.375-.4-.147-2.453-2.113-3.6-4.507-3.6zm7.236 4H11.8a4.977 4.977 0 00-1-3c1.704.019 3.095.88 3.2 2.7.004.073 0 .3-.272.3z"/></symbol>
<symbol id="icon-template" viewBox="0 0 16 16"><path fill-rule="evenodd" clip-rule="evenodd" d="M3 2.95a1 1 0 00-1 1v.526a1 1 0 001 1h10a1 1 0 001-1v-.527a1 1 0 00-1-1H3zm4.421 3.789a1 1 0 00-1 1v4.316a1 1 0 001 1H13a1 1 0 001-1V7.739a1 1 0 00-1-1H7.421z"/><rect opacity=".3" x="2" y="6.738" width="3.158" height="6.316" rx="1"/></symbol>
<symbol id="icon-video" viewBox="0 0 20 20"><path opacity=".3" fill-rule="evenodd" clip-rule="evenodd" d="M2.889 4a2 2 0 012-2H15.11a2 2 0 012 2v12a2 2 0 01-2 2H4.889a2 2 0 01-2-2V4zm.889.278a.5.5 0 01.5-.5h.777a.5.5 0 01.5.5v.778a.5.5 0 01-.5.5h-.777a.5.5 0 01-.5-.5v-.778zm11.166-.5a.5.5 0 00-.5.5v.778a.5.5 0 00.5.5h.778a.5.5 0 00.5-.5v-.778a.5.5 0 00-.5-.5h-.778zM3.778 7.833a.5.5 0 01.5-.5h.777a.5.5 0 01.5.5v.778a.5.5 0 01-.5.5h-.777a.5.5 0 01-.5-.5v-.778zm11.166-.5a.5.5 0 00-.5.5v.778a.5.5 0 00.5.5h.778a.5.5 0 00.5-.5v-.778a.5.5 0 00-.5-.5h-.778zM3.778 11.39a.5.5 0 01.5-.5h.777a.5.5 0 01.5.5v.778a.5.5 0 01-.5.5h-.777a.5.5 0 01-.5-.5v-.778zm11.166-.5a.5.5 0 00-.5.5v.778a.5.5 0 00.5.5h.778a.5.5 0 00.5-.5v-.778a.5.5 0 00-.5-.5h-.778zm-.5 4.055a.5.5 0 01.5-.5h.778a.5.5 0 01.5.5v.778a.5.5 0 01-.5.5h-.778a.5.5 0 01-.5-.5v-.778zm-10.166-.5a.5.5 0 00-.5.5v.778a.5.5 0 00.5.5h.777a.5.5 0 00.5-.5v-.778a.5.5 0 00-.5-.5h-.777z"/><path fill-rule="evenodd" clip-rule="evenodd" d="M8.729 11.813a.5.5 0 00.782.413l2.161-1.478a.5.5 0 00.001-.825L9.512 8.437a.5.5 0 00-.783.412v2.964z"/></symbol>
</svg>