<svg xmlns="http://www.w3.org/2000/svg">
<symbol id="icon-align-bottom" viewBox="0 0 17 16"><path d="M7.575 11.3h-3.3V2.5h3.3v8.8zm4.4-5.5h-3.3v5.5h3.3V5.8zm1.65 6.6h-11v1.1h11v-1.1z"/></symbol>
<symbol id="icon-align-horizontally" viewBox="0 0 17 16"><path d="M4.025 12.8V8.95h-1.65v-1.1h1.65V4h3.3v3.85h1.1v-2.2h3.3v2.2h1.65v1.1h-1.65v2.2h-3.3v-2.2h-1.1v3.85h-3.3z"/></symbol>
<symbol id="icon-align-left" viewBox="0 0 16 16"><path d="M13 8.05v3.3H4.2v-3.3H13zm-8.8-4.4v3.3h5.5v-3.3H4.2zM2 2v11h1.1V2H2z"/></symbol>
<symbol id="icon-align-right" viewBox="0 0 17 16"><path d="M11.675 8.05v3.3h-8.8v-3.3h8.8zm-5.5-4.4v3.3h5.5v-3.3h-5.5zm6.6-1.65v11h1.1V2h-1.1z"/></symbol>
<symbol id="icon-align-top" viewBox="0 0 17 16"><path d="M7.7 13H4.4V4.2h3.3V13zm4.4-8.8H8.8v5.5h3.3V4.2zM13.75 2h-11v1.1h11V2z"/></symbol>
<symbol id="icon-align-vertically" viewBox="0 0 17 16"><path d="M13.3 11.35H9.45V13h-1.1v-1.65H4.5v-3.3h3.85v-1.1h-2.2v-3.3h2.2V2h1.1v1.65h2.2v3.3h-2.2v1.1h3.85v3.3z"/></symbol>
<symbol id="icon-angle-down" viewBox="0 0 16 16"><path d="M4.167 5.002L3 6.137l5 4.86 5-4.86-1.167-1.135L8 8.73 4.167 5.002z"/></symbol>
<symbol id="icon-angle-left" viewBox="0 0 16 16"><path d="M11.11 3.911L9.935 2.667 4.889 8l5.045 5.333 1.177-1.244L7.243 8l3.868-4.089z"/></symbol>
<symbol id="icon-angle-right" viewBox="0 0 16 16"><path d="M5.002 11.833L6.136 13l4.862-5-4.862-5-1.134 1.167L8.729 8l-3.727 3.833z"/></symbol>
<symbol id="icon-angle-up" viewBox="0 0 16 16"><path d="M11.833 10.999L13 9.865 8 5.004l-5 4.86L4.167 11 8 7.272 11.833 11z"/></symbol>
<symbol id="icon-arrow-circle" viewBox="0 0 16 16"><path fill-rule="evenodd" clip-rule="evenodd" d="M9.94 9.12a3.06 3.06 0 10-2.59-1.431L3 12.039l.962.961 4.35-4.35c.471.297 1.03.47 1.628.47z"/></symbol>
<symbol id="icon-arrow-flatend" viewBox="0 0 16 16"><path fill-rule="evenodd" clip-rule="evenodd" d="M13 4.001L4.001 13 3 11.998 11.998 3 13 4.001z"/></symbol>
<symbol id="icon-arrow-left" viewBox="0 0 16 16"><path d="M13 7.369V8.63H5.424l3.472 3.473L8 13 3 8l5-5 .896.896L5.424 7.37H13z"/></symbol>
<symbol id="icon-arrow-line" viewBox="0 0 16 16"><path fill-rule="evenodd" clip-rule="evenodd" d="M6 3.333h6c.368 0 .666.299.666.667v6a.667.667 0 01-1.333 0V5.61l-6.862 6.862-.943-.943 6.862-6.862H6a.667.667 0 010-1.333z"/></symbol>
<symbol id="icon-arrow-ring" viewBox="0 0 16 16"><path fill-rule="evenodd" clip-rule="evenodd" d="M11.64 6.06a1.7 1.7 0 11-3.4 0 1.7 1.7 0 013.4 0zm1.36 0A3.06 3.06 0 018.31 8.65L3.961 13 3 12.038l4.35-4.35A3.06 3.06 0 1113 6.059z"/></symbol>
<symbol id="icon-arrow-triangle" viewBox="0 0 16 16"><path fill-rule="evenodd" clip-rule="evenodd" d="M4.863 5.18L13 3l-2.18 8.137-2.463-2.462L4.032 13 3 11.968l4.325-4.325L4.863 5.18z"/></symbol>
<symbol id="icon-bars" viewBox="0 0 24 24"><path d="M4 18v-2h16v2H4zm0-5v-2h16v2H4zm0-7h16v2H4V6z"/></symbol>
<symbol id="icon-blend-active" viewBox="0 0 16 16"><path fill-rule="evenodd" clip-rule="evenodd" d="M1.332 8a6.67 6.67 0 016.667-6.666 6.67 6.67 0 016.666 6.667A6.67 6.67 0 018 14.667a6.67 6.67 0 01-6.667-6.666z"/></symbol>
<symbol id="icon-blend" viewBox="0 0 16 16"><path fill-rule="evenodd" clip-rule="evenodd" d="M1.332 8a6.67 6.67 0 016.667-6.667A6.67 6.67 0 0114.665 8 6.67 6.67 0 018 14.667 6.67 6.67 0 011.332 8zm1.333 0c0 2.72 2.04 4.96 4.667 5.287V2.713A5.326 5.326 0 002.665 8zm7.914-4.667a5.338 5.338 0 00-1.914-.62v.62h1.914zm1.58 1.334H8.665v.667h3.947a5.092 5.092 0 00-.453-.667zm1 2H8.665v.667h4.62a5.612 5.612 0 00-.126-.667zm-4.494 6v.62a5.337 5.337 0 001.914-.62H8.665zm0-1.333h3.494a5.09 5.09 0 00.453-.667H8.665v.667zm0-2h4.494c.053-.22.1-.44.126-.667h-4.62v.667z"/></symbol>
<symbol id="icon-blob" viewBox="0 0 16 16"><path d="M11.646 6.31c.753 1.598 1.348 2.681 1.27 3.837-.08 1.165-.841 2.384-1.988 3.07-1.156.678-2.688.822-4.448.361-1.769-.46-3.747-1.517-3.993-2.907C2.242 9.28 3.74 7.564 5.14 5.82 6.533 4.08 7.82 2.31 8.914 2.472 10 2.625 10.902 4.72 11.646 6.31z"/></symbol>
<symbol id="icon-brandit" viewBox="0 0 16 16"><path d="M10.123 9.059l-1.061 1.06 2.347 2.348-1.534 1.53H14V9.871l-1.533 1.534-2.343-2.347zM6.938 5.878L3.06 2 2 3.062l3.877 3.877 1.06-1.061zM9.874 2.001l1.534 1.533L2 12.938l1.062 1.061 9.407-9.407 1.53 1.533V2.001H9.873z"/></symbol>
<symbol id="icon-bubble-round" viewBox="0 0 16 16"><path d="M14 7.836c.002.906-.21 1.8-.618 2.609a5.835 5.835 0 01-5.218 3.226c-.906.003-1.8-.209-2.609-.617l-2.74.913a.618.618 0 01-.782-.781l.913-2.741a5.754 5.754 0 01-.617-2.61 5.836 5.836 0 013.226-5.217A5.753 5.753 0 018.165 2h.343A5.822 5.822 0 0114 7.492v.344z"/></symbol>
<symbol id="icon-burger-xl" viewBox="0 0 100 100"><path d="M18.136 44.547V26c0-6.6 0-9.9 2.05-11.95C22.237 12 25.537 12 32.137 12H69.23c6.6 0 9.9 0 11.95 2.05 2.05 2.05 2.05 5.35 2.05 11.95v18.547M34.41 28.273l2.034 4.069m12.205-6.103l2.034-4.068m14.24 4.068l2.034 4.069M83.23 73.025V81.3c0 3.771 0 5.657-1.172 6.828C80.887 89.3 79.001 89.3 75.23 89.3H26.136c-3.77 0-5.656 0-6.828-1.172-1.172-1.171-1.172-3.057-1.172-6.828v-8.274" stroke="#3C3C3C" stroke-width="2" stroke-linecap="round" stroke-linejoin="round"/><rect x="10" y="44.547" width="81.367" height="12.205" rx="3" stroke="#3C3C3C" stroke-width="2"/><rect x="10" y="56.752" width="81.367" height="16.273" rx="3" stroke="#3C3C3C" stroke-width="2"/></symbol>
<symbol id="icon-burger" viewBox="0 0 24 24"><path d="M4.354 10.694v0c0-.753 0-1.13.028-1.447a7 7 0 016.335-6.335c.318-.03.694-.03 1.448-.03v0c.753 0 1.13 0 1.447.03a7 7 0 016.335 6.335c.029.317.029.694.029 1.447v0M8.259 6.788l.488.977m2.93-1.465l.488-.976m3.417.976l.488.977M19.976 17.527v0a3.906 3.906 0 01-3.906 3.906H8.26a3.906 3.906 0 01-3.906-3.906v0" stroke="#3C3C3C" stroke-width="1.8" stroke-linecap="round" stroke-linejoin="round"/><rect x="2.4" y="10.691" width="19.528" height="2.929" rx="1.465" stroke="#3C3C3C" stroke-width="1.8"/><rect x="2.4" y="13.625" width="19.528" height="3.906" rx="1.953" stroke="#3C3C3C" stroke-width="1.8"/></symbol>
<symbol id="icon-caret-left" viewBox="0 0 12 12"><path d="M8 2.268v7.464c0 .224-.245.349-.413.21L3.097 6.21a.277.277 0 010-.42l4.49-3.732c.168-.139.413-.014.413.21z"/></symbol>
<symbol id="icon-caret-right" viewBox="0 0 12 12"><path d="M4 9.732V2.268c0-.224.245-.349.413-.21l4.49 3.732a.277.277 0 010 .42l-4.49 3.732c-.168.139-.413.014-.413-.21z"/></symbol>
<symbol id="icon-check-circle-solid-negative" viewBox="0 0 16 16"><path d="M3 8c0-2.757 2.243-5 5-5s5 2.243 5 5-2.243 5-5 5-5-2.243-5-5z" fill="#fff"/><path d="M5.5 8.164l1.782 1.711L10.5 6.778l-.679-.653-2.54 2.445-1.103-1.06-.678.654z"/></symbol>
<symbol id="icon-check-circle-solid" viewBox="0 0 16 16"><path d="M3 8c0-2.757 2.243-5 5-5s5 2.243 5 5-2.243 5-5 5-5-2.243-5-5z"/><path d="M5.5 8.164l1.782 1.711L10.5 6.778l-.679-.653-2.54 2.445-1.103-1.06-.678.654z" fill="#fff"/></symbol>
<symbol id="icon-checkbox-checked" viewBox="0 0 16 16"><path d="M4.429 3A1.43 1.43 0 003 4.429v7.142C3 12.36 3.64 13 4.429 13h7.142A1.43 1.43 0 0013 11.571V4.43A1.43 1.43 0 0011.571 3H4.43zm0 8.571V4.43h7.142l.002 7.142H4.429z"/><path d="M7.281 8.396l-.926-.908-1 1.022 1.932 1.89 3.356-3.322L9.64 6.062 7.281 8.396z"/></symbol>
<symbol id="icon-checkbox" viewBox="0 0 16 16"><path d="M4.429 3A1.43 1.43 0 003 4.429v7.142C3 12.36 3.64 13 4.429 13h7.142A1.43 1.43 0 0013 11.571V4.43A1.43 1.43 0 0011.571 3H4.43zm0 8.571V4.43h7.142l.002 7.142H4.429z"/></symbol>
<symbol id="icon-circle" viewBox="0 0 16 16"><path d="M3 8c0 2.756 2.243 5 5 5 2.756 0 5-2.244 5-5s-2.244-5-5-5C5.243 3 3 5.244 3 8zm8.571 0A3.575 3.575 0 018 11.571 3.575 3.575 0 014.429 8 3.575 3.575 0 018 4.429 3.575 3.575 0 0111.571 8z"/></symbol>
<symbol id="icon-cloud-check" viewBox="0 0 16 16"><path fill-rule="evenodd" clip-rule="evenodd" d="M8 4a3.745 3.745 0 013.675 3.02C12.975 7.11 14 8.18 14 9.5a2.5 2.5 0 01-2.5 2.5H5c-1.655 0-3-1.345-3-3 0-1.545 1.17-2.82 2.675-2.98A3.748 3.748 0 018 4zM5.955 8.044L7 9.09l2.3-2.3.705.705L7 10.5 5.25 8.75l.705-.705z"/></symbol>
<symbol id="icon-cloud-up" viewBox="0 0 16 16"><path d="M12.112 6.889A4.181 4.181 0 008 3.556c-1.611 0-3 .888-3.667 2.222-1.722.222-3 1.61-3 3.333 0 1.833 1.5 3.333 3.333 3.333h7.223a2.75 2.75 0 002.777-2.777c0-1.445-1.166-2.667-2.555-2.778zm-3 1.667v2.222H6.89V8.556H5.223L8 5.778l2.777 2.778H9.112z"/></symbol>
<symbol id="icon-cog" viewBox="0 0 17 16"><path fill-rule="evenodd" clip-rule="evenodd" d="M13.502 8c0 .227-.02.44-.047.653l1.407 1.1c.127.1.16.28.08.427l-1.334 2.307a.33.33 0 01-.286.166.378.378 0 01-.12-.02l-1.66-.666c-.347.26-.72.486-1.127.653l-.253 1.767c-.02.16-.16.28-.327.28H7.17a.325.325 0 01-.327-.28l-.253-1.767a4.87 4.87 0 01-1.127-.653l-1.66.666a.333.333 0 01-.407-.147L2.062 10.18a.336.336 0 01.08-.426l1.407-1.1A5.289 5.289 0 013.502 8c0-.22.02-.44.047-.653l-1.407-1.1a.329.329 0 01-.08-.427l1.333-2.307a.33.33 0 01.287-.166c.04 0 .08.006.12.02l1.66.667c.347-.26.72-.487 1.127-.654l.253-1.766c.02-.16.16-.28.327-.28h2.666c.167 0 .307.12.327.28l.253 1.766c.407.167.78.387 1.127.654l1.66-.667a.333.333 0 01.407.147l1.333 2.306a.336.336 0 01-.08.427l-1.407 1.1c.027.213.047.426.047.653zm-1.334 0c0-.14-.006-.28-.033-.487l-.093-.753.593-.467.713-.566-.466-.807-.847.34-.707.287-.606-.467a3.78 3.78 0 00-.82-.473l-.707-.287-.107-.753-.126-.9h-.927l-.133.9-.107.753-.707.287a3.905 3.905 0 00-.833.486l-.6.454-.693-.28-.847-.34-.467.806.72.56.594.467-.093.753c-.02.2-.034.354-.034.487s.013.287.034.493l.093.754-.593.466-.72.56.466.807.847-.34.707-.287.606.467c.267.2.534.354.82.473l.707.287.107.753.126.9h.934l.133-.9.107-.753.706-.287a3.91 3.91 0 00.834-.486l.6-.454.693.28.847.34.466-.806-.72-.56-.593-.467.093-.753c.02-.2.034-.347.034-.487zM8.502 5.333a2.666 2.666 0 100 5.334 2.666 2.666 0 100-5.333zM7.168 8c0 .733.6 1.333 1.334 1.333.733 0 1.333-.6 1.333-1.333s-.6-1.333-1.333-1.333c-.734 0-1.334.6-1.334 1.333z"/></symbol>
<symbol id="icon-copy" viewBox="0 0 16 16"><path fill-rule="evenodd" clip-rule="evenodd" d="M10.454 2H3.91c-.6 0-1.091.49-1.091 1.09v7.636h1.09V3.09h6.545V2zm1.636 2.183h-6c-.599 0-1.09.491-1.09 1.09v7.637c0 .6.491 1.09 1.09 1.09h6c.6 0 1.091-.49 1.091-1.09V5.274c0-.6-.49-1.09-1.09-1.09zm-5.998 8.723h6V5.27h-6v7.636z"/></symbol>
<symbol id="icon-crop" viewBox="0 0 16 16"><path fill-rule="evenodd" clip-rule="evenodd" d="M12.666 10.001h-1.333V4.668H5.999V3.335h5.334c.733 0 1.333.6 1.333 1.333v5.333zm-8-9.333v10.667h10.667v1.333h-2.667v2.667h-1.333v-2.667H4.666c-.733 0-1.333-.6-1.333-1.333V4.668H.666V3.335h2.667V.668h1.333z"/></symbol>
<symbol id="icon-crown" viewBox="0 0 16 16"><path d="M3.036 4.422L5.41 6.265l2.114-2.297a.62.62 0 01.22-.151.695.695 0 01.541.005c.084.037.158.09.216.155l2.018 2.287 2.45-1.869a.695.695 0 01.707-.066.588.588 0 01.258.237c.057.1.078.214.06.325l-.936 5.693H2.957l-.95-5.668a.494.494 0 01.058-.326.588.588 0 01.26-.238.695.695 0 01.711.07zm-.03 6.713h9.98v.55a.52.52 0 01-.183.39.669.669 0 01-.44.16H3.628a.669.669 0 01-.44-.16.52.52 0 01-.183-.39v-.55z"/></symbol>
<symbol id="icon-distribute-horizontally" viewBox="0 0 17 16"><path fill-rule="evenodd" clip-rule="evenodd" d="M3.125 13V2h1v11h-1zm9 0V2h1v11h-1zm-2-10h-4v9h4V3z"/></symbol>
<symbol id="icon-distribute-vertically" viewBox="0 0 16 16"><path fill-rule="evenodd" clip-rule="evenodd" d="M13.333 12.849H2.666v-.97h10.667v.97zm0-8.728H2.666v-.97h10.667v.97zm-9.697 1.94V9.94h8.727V6.06H3.636z"/></symbol>
<symbol id="icon-doc" viewBox="0 0 16 16"><path d="M9.482 1.333H3.556c-.815 0-1.474.6-1.474 1.334l-.008 10.666c0 .734.66 1.334 1.474 1.334h8.897c.814 0 1.481-.6 1.481-1.333v-8l-4.444-4zm-5.926 12V2.668H8.74V6h3.704v7.334h-8.89z"/></symbol>
<symbol id="icon-dots" viewBox="0 0 16 16"><path fill-rule="evenodd" clip-rule="evenodd" d="M9 4a1 1 0 11-2 0 1 1 0 012 0zm0 3.998a1 1 0 11-2 0 1 1 0 012 0zm-1 5.004a1 1 0 100-2 1 1 0 000 2z"/></symbol>
<symbol id="icon-download" viewBox="0 0 16 16"><path fill-rule="evenodd" clip-rule="evenodd" d="M10.117 6.236h2.824L8 11.177l-4.941-4.94h2.823V2h4.235v4.235zM12.941 14v-1.412H3.059V14h9.882z"/></symbol>
<symbol id="icon-drag-handle" viewBox="0 0 16 16"><path fill-rule="evenodd" clip-rule="evenodd" d="M6.125 5.5a1.25 1.25 0 100-2.5 1.25 1.25 0 000 2.5zm0 3.75a1.25 1.25 0 100-2.5 1.25 1.25 0 000 2.5zm1.25 2.5a1.25 1.25 0 11-2.5 0 1.25 1.25 0 012.5 0zm2.5-6.25a1.25 1.25 0 100-2.5 1.25 1.25 0 000 2.5zm0 3.75a1.25 1.25 0 100-2.5 1.25 1.25 0 000 2.5zm1.25 2.5a1.25 1.25 0 11-2.5 0 1.25 1.25 0 012.5 0z" fill="#949494"/></symbol>
<symbol id="icon-edit" viewBox="0 0 16 16"><path fill-rule="evenodd" clip-rule="evenodd" d="M11.771 2a.667.667 0 00-.466.193l-1.22 1.22 2.5 2.5 1.22-1.22c.26-.26.26-.68 0-.94l-1.56-1.56A.655.655 0 0011.77 2zM9.374 6.011l.613.613-6.04 6.04h-.613v-.613l6.04-6.04zM2 11.497l7.372-7.372 2.5 2.5L4.5 13.996H2v-2.5z"/></symbol>
<symbol id="icon-email" viewBox="0 0 16 16"><path fill-rule="evenodd" clip-rule="evenodd" d="M14 4.4c0-.66-.54-1.2-1.2-1.2H3.2c-.66 0-1.2.54-1.2 1.2v7.2c0 .66.54 1.2 1.2 1.2h9.6c.66 0 1.2-.54 1.2-1.2V4.4zM12.8 4.4l-4.8 3-4.8-3h9.6zM8 8.601l-4.8-3v6h9.6v-6l-4.8 3z"/></symbol>
<symbol id="icon-export" viewBox="0 0 16 16"><path fill-rule="evenodd" clip-rule="evenodd" d="M3.333 3.333v9.334h9.334V8H14v4.667C14 13.4 13.4 14 12.667 14H3.333C2.593 14 2 13.4 2 12.667V3.333C2 2.6 2.593 2 3.333 2H8v1.333H3.333zm6 0V2H14v4.667h-1.333V4.273l-6.554 6.554-.94-.94 6.554-6.554H9.333z"/></symbol>
<symbol id="icon-eye" viewBox="0 0 16 16"><path d="M6.404 8c0 .437.162.857.451 1.166.29.31.681.483 1.09.483.409 0 .8-.174 1.09-.483.289-.31.451-.729.451-1.166a1.71 1.71 0 00-.451-1.166 1.492 1.492 0 00-1.09-.483c-.409 0-.8.174-1.09.483A1.71 1.71 0 006.404 8zm7.517-.38C12.616 4.68 10.643 3.2 8 3.2c-2.645 0-4.616 1.48-5.92 4.422a.94.94 0 000 .758C3.383 11.32 5.355 12.8 8 12.8c2.645 0 4.616-1.48 5.92-4.422a.944.944 0 000-.758zm-5.976 2.971c-1.338 0-2.422-1.16-2.422-2.591 0-1.431 1.084-2.591 2.422-2.591S10.367 6.569 10.367 8c0 1.431-1.084 2.591-2.422 2.591z"/></symbol>
<symbol id="icon-filter" viewBox="0 0 16 16"><path fill-rule="evenodd" clip-rule="evenodd" d="M2 4.25v1.5h12v-1.5H2zm4.5 7.5h3v-1.5h-3v1.5zm6-3h-9v-1.5h9v1.5z"/></symbol>
<symbol id="icon-flip-horizontally" viewBox="0 0 16 16"><path d="M6.933 3.733v8.534H2.666l4.267-8.534z"/><path opacity=".6" d="M9.066 3.733v8.534h4.267L9.066 3.733z"/></symbol>
<symbol id="icon-flip-vertically" viewBox="0 0 16 16"><path d="M12 7H4V3l8 4z"/><path opacity=".6" d="M12 9H4v4l8-4z"/></symbol>
<symbol id="icon-folder-arrow" viewBox="0 0 16 16"><path fill-rule="evenodd" clip-rule="evenodd" d="M8 4.001h5.334c.733 0 1.333.6 1.333 1.334V12c0 .734-.6 1.334-1.333 1.334H2.667c-.733 0-1.333-.6-1.333-1.334v-8c0-.733.6-1.333 1.333-1.333h4l1.334 1.333zm-5.333 8h10.667V5.335H7.447l-.393-.394-.94-.94H2.667v8zm2.667-4h2.773l-1.053-1.06.94-.94 2.673 2.674-2.673 2.66-.947-.94 1.06-1.06H5.334V8z"/></symbol>
<symbol id="icon-folder-minus" viewBox="0 0 16 16"><path fill-rule="evenodd" clip-rule="evenodd" d="M13.333 4H8L6.667 2.667h-4c-.734 0-1.327.6-1.327 1.333l-.007 8c0 .734.6 1.334 1.334 1.334h10.666c.734 0 1.334-.6 1.334-1.334V5.334c0-.734-.6-1.334-1.334-1.334zM2.667 12V5.334h10.666V12H2.667zm8-2.666H5.333V8h5.334v1.334z"/></symbol>
<symbol id="icon-folder-smart" viewBox="0 0 16 16"><path fill-rule="evenodd" clip-rule="evenodd" d="M13.332 4H7.999L6.665 2.667h-4c-.733 0-1.326.6-1.326 1.333l-.007 8c0 .734.6 1.334 1.333 1.334h10.667c.733 0 1.333-.6 1.333-1.334V5.334c0-.734-.6-1.334-1.333-1.334zM6.761 6.84L8 5.6l1.24 1.24-1.24 1.241-1.24-1.24zm-.62.621l-1.24 1.24 1.24 1.24 1.241-1.24-1.24-1.24zm1.86 1.86l-1.24 1.24L8 11.801l1.24-1.24-1.24-1.24zm1.863-1.86l-1.24 1.24 1.24 1.24 1.24-1.24-1.24-1.24z"/></symbol>
<symbol id="icon-folder" viewBox="0 0 16 16"><path fill-rule="evenodd" clip-rule="evenodd" d="M8 4.001h5.334c.733 0 1.333.6 1.333 1.334V12c0 .734-.6 1.334-1.333 1.334H2.667c-.733 0-1.333-.6-1.333-1.334l.007-8c0-.733.593-1.333 1.326-1.333h4l1.334 1.333zM2.668 5.335V12h10.667V5.335H2.667z"/></symbol>
<symbol id="icon-fork-knife" viewBox="0 0 32 32"><path d="M7.68 27.912v-6.51m0 0V4.48s5.76 3.905 5.76 16.924H7.68zM21.504 4.479v9.113m0 14.32v-14.32m0 0v0a3.456 3.456 0 01-3.456-3.456V4.479m3.456 9.113v0a3.456 3.456 0 003.456-3.456V4.479" stroke="#3C3C3C" stroke-width="1.8" stroke-linecap="round" stroke-linejoin="round"/></symbol>
<symbol id="icon-fullscreen" viewBox="0 0 16 16"><path d="M4.666 9.334H3.333v3.333h3.333v-1.333h-2v-2zM3.333 6.667h1.333v-2h2V3.334H3.333v3.333zm8 4.667h-2v1.333h3.333V9.334h-1.333v2zm-2-8v1.333h2v2h1.333V3.334H9.333z"/></symbol>
<symbol id="icon-glorify-g" viewBox="0 0 16 16"><path fill-rule="evenodd" clip-rule="evenodd" d="M16 7.966v.031a8.005 8.005 0 01-4.866 7.363A7.997 7.997 0 01.194 9.752 8.006 8.006 0 013.329 1.5 7.998 7.998 0 017.683 0 .307.307 0 018 .306V3.17a.305.305 0 01-.29.305A4.529 4.529 0 003.597 9.06a4.532 4.532 0 006.205 3.096 4.53 4.53 0 002.729-4.159v-.03H8.306A.307.307 0 018 7.66V5.42a.307.307 0 01.306-.307H16v2.854zM10.878.346a.274.274 0 00-.274.274v2.189a.274.274 0 00.274.273h2.244a.273.273 0 00.274-.273V.616a.274.274 0 00-.274-.27h-2.244z"/></symbol>
<symbol id="icon-hash" viewBox="0 0 16 16"><path d="M13.6 5.597h-2.664l.62-3.11a.41.41 0 00-.322-.48.406.406 0 00-.478.324l-.636 3.266H6.844l.62-3.11a.411.411 0 00-.322-.48.406.406 0 00-.478.324l-.636 3.266H3.2a.4.4 0 00-.4.402.403.403 0 00.4.401h2.668l-.64 3.214H2.4a.4.4 0 00-.4.402.403.403 0 00.4.402h2.664l-.62 3.109a.403.403 0 00.316.47.268.268 0 00.08 0 .399.399 0 00.4-.321l.64-3.258h3.276l-.62 3.109a.403.403 0 00.316.47c.025.004.05.004.076 0a.399.399 0 00.4-.321l.644-3.258H12.8a.4.4 0 00.4-.402.402.402 0 00-.4-.402h-2.668l.644-3.214H13.6A.399.399 0 0014 6a.402.402 0 00-.4-.402zM9.316 9.614H6.04L6.684 6.4H9.96l-.644 3.214z"/></symbol>
<symbol id="icon-heart" viewBox="0 0 16 16"><path d="M13.71 4.754a3.7 3.7 0 00-1.958-1.965A3.647 3.647 0 008 3.34a3.647 3.647 0 00-4.919.237A3.717 3.717 0 002 6.202c.001.474.095.967.283 1.469.157.42.382.854.67 1.293.455.695 1.082 1.42 1.86 2.155a20.845 20.845 0 002.62 2.094l.328.216a.438.438 0 00.48 0l.329-.216c.054-.036 1.33-.876 2.62-2.094.777-.735 1.404-1.46 1.86-2.155.287-.439.513-.874.669-1.293.188-.502.282-.995.282-1.468a3.69 3.69 0 00-.29-1.449z"/></symbol>
<symbol id="icon-hidden" viewBox="0 0 16 16"><path d="M7.907 6.09l1.73 1.725v-.088A1.636 1.636 0 008 6.091h-.093zm-2.345.437l.845.846c-.027.114-.043.229-.043.354A1.636 1.636 0 008 9.364c.12 0 .24-.017.355-.044l.845.845c-.365.18-.77.29-1.2.29a2.727 2.727 0 01-2.727-2.728c0-.43.109-.834.289-1.2zM2.545 3.511L3.79 4.755 4.035 5c-.9.71-1.61 1.636-2.035 2.727a6.451 6.451 0 008.39 3.633l.234.23 1.592 1.592.693-.693-9.67-9.67-.694.692zM8 5a2.727 2.727 0 012.727 2.727c0 .35-.07.688-.196.993l1.598 1.598A6.46 6.46 0 0014 7.728a6.45 6.45 0 00-6-4.092c-.764 0-1.495.137-2.182.382l1.184 1.173C7.312 5.07 7.645 5 8 5z"/></symbol>
<symbol id="icon-hide" viewBox="0 0 16 16"><path d="M7.901 5.964l1.844 1.838V7.71A1.745 1.745 0 008 5.964h-.099zM5.4 6.429l.902.902c-.029.122-.046.244-.046.378A1.745 1.745 0 008 9.454c.128 0 .256-.017.378-.046l.902.902c-.39.192-.82.308-1.28.308A2.91 2.91 0 015.09 7.71c0-.46.117-.89.31-1.28zM2.182 3.212l1.326 1.326.262.262A6.884 6.884 0 001.6 7.709a6.881 6.881 0 008.948 3.875l.25.244 1.7 1.7.738-.74L2.921 2.473l-.74.739zM8 4.8a2.909 2.909 0 012.91 2.909c0 .372-.076.733-.21 1.059l1.704 1.705A6.891 6.891 0 0014.4 7.709 6.881 6.881 0 008 3.345c-.815 0-1.594.146-2.327.408l1.262 1.25A2.938 2.938 0 018 4.8z"/></symbol>
<symbol id="icon-image-edit" viewBox="0 0 17 16"><path fill-rule="evenodd" clip-rule="evenodd" d="M14.967 10.2l.666-.667a.41.41 0 00.067-.466l-.867-.867a.505.505 0 00-.266-.133c-.134 0-.2.066-.267.133l-.667.667 1.334 1.333zm-5.8 4.467v-1.4l4.133-4 1.333 1.333-4.066 4.067h-1.4zm-2.5-5.687l1.306 1.573 1.834-2.36L10.94 9.7l-1.693 1.633H4.833L6.667 8.98zm1.166 3.72V14h-4A1.333 1.333 0 012.5 12.667V3.333C2.5 2.6 3.1 2 3.833 2h9.334c.74 0 1.333.6 1.333 1.333v2.92L13.167 7.54V3.333H3.833v9.334h4.034l-.034.033z"/></symbol>
<symbol id="icon-isolate" viewBox="0 0 16 16"><path fill-rule="evenodd" clip-rule="evenodd" d="M13.518 1.334h-2.962v1.482h2.963v2.963h1.48V2.816c0-.815-.666-1.482-1.48-1.482zM6.111 2.816H3.148V5.78H1.667V2.816c0-.815.667-1.482 1.481-1.482h2.963v1.482zM1.667 10.22h1.481v2.964h2.963v1.482H3.148a1.486 1.486 0 01-1.481-1.482V10.22zm6.665-5.178A2.962 2.962 0 005.37 8.006a2.962 2.962 0 105.924 0 2.962 2.962 0 00-2.962-2.964zM6.852 8c0 .815.667 1.482 1.481 1.482.815 0 1.481-.667 1.481-1.482s-.666-1.481-1.48-1.481c-.815 0-1.482.666-1.482 1.481zm3.704 5.185h2.963V10.22h1.48v2.964c0 .815-.666 1.482-1.48 1.482h-2.963v-1.482z"/></symbol>
<symbol id="icon-justify-center" viewBox="0 0 20 20"><path fill-rule="evenodd" clip-rule="evenodd" d="M4 5.335V4h12v1.334H4zm2.667 1.328v1.334h6.667V6.663H6.667zM16 10.668H4V9.335h12v1.333zm-9.333 1.336v1.333h6.667v-1.333H6.667zM4 15.999h12v-1.334H4V16z"/></symbol>
<symbol id="icon-justify-left" viewBox="0 0 20 20"><path fill-rule="evenodd" clip-rule="evenodd" d="M4 5.333V4h12v1.333H4zm8 1.335H4v1.334h8V6.668zm0 5.337H4v1.333h8v-1.333zm4-1.342H4V9.33h12v1.333zM4 16h12v-1.334H4V16z"/></symbol>
<symbol id="icon-justify-right" viewBox="0 0 20 20"><path fill-rule="evenodd" clip-rule="evenodd" d="M4 5.335V4h11.996v1.334H4zM8.003 8H16V6.667H8.003V8zm7.993 2.672H4V9.338h11.996v1.334zM8.003 13.34H16v-1.333H8.003v1.333zM4 16h11.996v-1.334H4V16z"/></symbol>
<symbol id="icon-layers" viewBox="0 0 16 16"><path fill-rule="evenodd" clip-rule="evenodd" d="M14 5.6a.6.6 0 00-.31-.525l-5.413-3a.602.602 0 00-.58 0L2.308 5.051A.6.6 0 002.308 6.1L7.72 9.124a.597.597 0 00.584 0l5.387-3A.6.6 0 0014 5.6zM8.014 7.913L3.836 5.579l4.15-2.293L12.165 5.6 8.014 7.913zm5.094-.438l-5.11 2.838L2.89 7.475l-.583 1.05 5.4 3a.6.6 0 00.583 0l5.4-3-.582-1.05zm-5.11 5.238l5.11-2.838.582 1.05-5.4 3a.6.6 0 01-.583 0l-5.4-3 .583-1.05 5.109 2.838z"/></symbol>
<symbol id="icon-letter-h" viewBox="0 0 16 16"><path d="M3.5 14V2h1.973v5.08h5.048V2H12.5v12h-1.979V8.902H5.473V14H3.5z"/></symbol>
<symbol id="icon-letter-w" viewBox="0 0 16 16"><path d="M4.545 12.8L2 3.2h1.757l1.625 7.054h.084L7.2 3.199h1.598l1.74 7.06h.079l1.625-7.06H14l-2.545 9.6H9.843L8.037 6.063h-.07L6.157 12.8H4.545z"/></symbol>
<symbol id="icon-letter-x" viewBox="0 0 16 16"><path d="M5.91 3.333H4.666l2.813 4.364-2.813 4.363H5.91l2.25-3.562h.069l2.25 3.562h1.244L8.979 7.697l2.744-4.364h-1.245l-2.25 3.63H8.16l-2.25-3.63z"/></symbol>
<symbol id="icon-letter-y" viewBox="0 0 16 16"><path d="M4.307 3.599l3.153 5.13v3.597h1.057V8.729L11.67 3.6h-1.21L8.04 7.673h-.103l-2.42-4.074h-1.21z"/></symbol>
<symbol id="icon-lightning" viewBox="0 0 20 20"><path fill-rule="evenodd" clip-rule="evenodd" d="M9.167 15.856c0 .742.962 1.034 1.374.416L15.056 9.5a.75.75 0 00-.624-1.166h-3.598v-4.19c0-.741-.963-1.033-1.374-.415L4.944 10.5a.75.75 0 00.624 1.166h3.599v4.19z" fill="#6775F8"/></symbol>
<symbol id="icon-link" viewBox="0 0 16 16"><path fill-rule="evenodd" clip-rule="evenodd" d="M7.4 9.8H5c-.99 0-1.8-.81-1.8-1.8S4.01 6.2 5 6.2h2.4V5H5a3.001 3.001 0 000 6h2.4V9.8zM11 5H8.6v1.2H11c.99 0 1.8.81 1.8 1.8s-.81 1.8-1.8 1.8H8.6V11H11a3.001 3.001 0 000-6zm-.6 2.401H5.6v1.2h4.8v-1.2z"/></symbol>
<symbol id="icon-list-bullet" viewBox="0 0 16 16"><path d="M4.919 3.46H14v1.297H4.919V3.46zm0 5.189V7.35H14V8.65H4.919zM2.973 3.135a.973.973 0 110 1.946.973.973 0 010-1.946zm0 3.892a.973.973 0 110 1.946.973.973 0 010-1.946zm1.946 5.514v-1.298H14v1.298H4.919zm-1.946-1.622a.973.973 0 110 1.946.973.973 0 010-1.946z"/></symbol>
<symbol id="icon-lock" viewBox="0 0 16 16"><path d="M12.334 5.334h-.667V4a3.335 3.335 0 00-6.666 0v1.334h-.667C3.6 5.334 3 5.934 3 6.667v6.667c0 .733.6 1.333 1.333 1.333h8c.733 0 1.333-.6 1.333-1.333V6.667c0-.733-.6-1.333-1.333-1.333zM6.334 4c0-1.106.893-2 2-2s2 .894 2 2v1.334h-4V4zm6 9.334h-8V6.667h8v6.667zm-4-2c.733 0 1.333-.6 1.333-1.334 0-.733-.6-1.333-1.333-1.333S7 9.267 7 10c0 .734.6 1.334 1.333 1.334z"/></symbol>
<symbol id="icon-matrix" viewBox="0 0 24 24"><path d="M4 4h4v4H4V4zm6 0h4v4h-4V4zm6 0h4v4h-4V4zM4 10h4v4H4v-4zm6 0h4v4h-4v-4zm6 0h4v4h-4v-4zM4 16h4v4H4v-4zm6 0h4v4h-4v-4zm6 0h4v4h-4v-4z"/></symbol>
<symbol id="icon-minus-circle" viewBox="0 0 16 16"><path fill-rule="evenodd" clip-rule="evenodd" d="M8 3C5.24 3 3 5.24 3 8s2.24 5 5 5 5-2.24 5-5-2.24-5-5-5zM5.5 7.503v1h5v-1h-5zM4.001 8c0 2.205 1.795 4 4 4s4-1.795 4-4-1.795-4-4-4-4 1.795-4 4z"/></symbol>
<symbol id="icon-minus" viewBox="0 0 16 16"><path d="M14 7.4H2v1.2h12V7.4z"/></symbol>
<symbol id="icon-page" viewBox="0 0 16 16"><path d="M9.333 2H3.999c-.733 0-1.326.54-1.326 1.2l-.007 9.6c0 .66.593 1.2 1.327 1.2h8.006c.734 0 1.334-.54 1.334-1.2V5.6l-4-3.6zM3.999 12.8V3.2h4.667v3h3.333v6.6H4z"/></symbol>
<symbol id="icon-paragraph" viewBox="0 0 16 16"><path d="M2 2.75h12v1.5H2v-1.5zm0 3h12v1.5H2v-1.5zm0 3h12v1.5H2v-1.5zm0 3h7.5v1.5H2v-1.5z"/></symbol>
<symbol id="icon-pen" viewBox="0 0 16 16"><path d="M10.499 2L14 5.508l-1.01.996-3.494-3.495L10.5 2zM2 13.492l4.588-4.567a.681.681 0 01.163-.678.712.712 0 011.002 0 .711.711 0 010 1.002.681.681 0 01-.678.163L2.508 14l7.49-2.506 2.491-4.49-3.487-3.493-4.496 2.491L2 13.492z"/></symbol>
<symbol id="icon-pencil" viewBox="0 0 16 16"><path d="M9.373 6l.627.627-6.053 6.04h-.614v-.614L9.373 6zm2.4-4a.667.667 0 00-.466.193l-1.22 1.22 2.5 2.5 1.22-1.22a.664.664 0 000-.94l-1.56-1.56A.655.655 0 0011.773 2zm-2.4 2.127L2 11.5V14h2.5l7.373-7.373-2.5-2.5z"/></symbol>
<symbol id="icon-picker" viewBox="0 0 16 16"><path fill-rule="evenodd" clip-rule="evenodd" d="M11.307 2.193A.683.683 0 0111.78 2a.68.68 0 01.467.193l1.56 1.56c.26.26.26.68-.007.947l-2.08 2.08L13 8.06l-.94.94-.947-.947L5.167 14H2v-3.167l5.947-5.946L7 3.94 7.94 3l1.287 1.273 2.08-2.08zm-7.963 9.18l1.28 1.28L9.997 7.28 8.717 6l-5.373 5.373z"/></symbol>
<symbol id="icon-plus-circle" viewBox="0 0 16 16"><path fill-rule="evenodd" clip-rule="evenodd" d="M8 3C5.24 3 3 5.24 3 8s2.24 5 5 5 5-2.24 5-5-2.24-5-5-5zm-.5 2.5v2h-2v1h2v2h1v-2h2v-1h-2v-2h-1zM4.001 8.001c0 2.205 1.795 4 4 4s4-1.795 4-4-1.795-4-4-4-4 1.795-4 4z"/></symbol>
<symbol id="icon-plus" viewBox="0 0 16 16"><path d="M14 7.4H8.6V2H7.4v5.4H2v1.2h5.4V14h1.2V8.6H14V7.4z"/></symbol>
<symbol id="icon-px" viewBox="0 0 16 16"><path d="M2 13.511V4.577h.964v1.032h.119c.073-.113.175-.257.304-.432.133-.177.322-.335.567-.473.249-.141.584-.212 1.007-.212.547 0 1.03.137 1.447.41.417.274.743.662.977 1.164.234.502.351 1.094.351 1.777 0 .688-.117 1.284-.351 1.789-.234.502-.558.891-.973 1.167-.414.274-.892.41-1.434.41-.417 0-.752-.068-1.002-.207a1.86 1.86 0 01-.58-.478 6.37 6.37 0 01-.313-.448h-.085v3.435H2zm.981-5.685c0 .49.072.923.216 1.298.144.373.354.664.63.876.277.209.615.313 1.016.313.417 0 .765-.11 1.045-.33.282-.223.493-.522.634-.897a3.52 3.52 0 00.216-1.26c0-.457-.07-.869-.212-1.236a1.909 1.909 0 00-.63-.875c-.28-.217-.63-.326-1.053-.326-.406 0-.748.103-1.024.309a1.853 1.853 0 00-.626.854c-.141.364-.212.789-.212 1.274zM9.736 4.577l1.557 2.656 1.556-2.656H14l-2.098 3.249L14 11.074h-1.15l-1.557-2.52-1.557 2.52h-1.15l2.064-3.248-2.065-3.25h1.151z"/></symbol>
<symbol id="icon-radio-checked" viewBox="0 0 16 16"><path d="M8 3C5.244 3 3 5.244 3 8s2.244 5 5 5 5-2.244 5-5-2.244-5-5-5zm0 8.571A3.575 3.575 0 014.429 8 3.575 3.575 0 018 4.429 3.575 3.575 0 0111.571 8 3.575 3.575 0 018 11.571z"/><path d="M8 5.86c-1.162 0-2.143.98-2.143 2.142S6.838 10.145 8 10.145s2.143-.98 2.143-2.143c0-1.162-.98-2.143-2.143-2.143z"/></symbol>
<symbol id="icon-radio" viewBox="0 0 16 16"><path d="M3 8c0 2.756 2.243 5 5 5 2.756 0 5-2.244 5-5s-2.244-5-5-5C5.243 3 3 5.244 3 8zm8.571 0A3.575 3.575 0 018 11.571 3.575 3.575 0 014.429 8 3.575 3.575 0 018 4.429 3.575 3.575 0 0111.571 8z"/></symbol>
<symbol id="icon-radius" viewBox="0 0 16 16"><path d="M2 2h1.6v5.6h4.8v4.8H14V14H2V2zm1.6 10.4h3.2V9.2H3.6v3.2z"/></symbol>
<symbol id="icon-redo" viewBox="0 0 16 16"><path d="M6.53 5.3h2.94V3.5L13 5.9 9.47 8.3V6.5H6.53c-1.295 0-2.354 1.08-2.354 2.4 0 1.32 1.06 2.4 2.353 2.4h2.942v1.2H6.529C4.59 12.5 3 10.88 3 8.9s1.588-3.6 3.53-3.6z"/></symbol>
<symbol id="icon-resize" viewBox="0 0 16 16"><path fill-rule="evenodd" clip-rule="evenodd" d="M5.404 2.286v8.31h8.31v1.038h-2.078v2.077h-1.038v-2.077H5.404a1.042 1.042 0 01-1.039-1.039V5.402H2.288V4.363h2.077V2.286h1.04zm6.232 7.27h-1.039V5.4H6.442V4.362h4.155c.571 0 1.039.467 1.039 1.038v4.155z"/></symbol>
<symbol id="icon-search" viewBox="0 0 16 16"><path d="M7.132 12.263a5.101 5.101 0 003.141-1.083l2.82 2.82.907-.907-2.82-2.82a5.1 5.1 0 001.084-3.142A5.138 5.138 0 007.132 2 5.138 5.138 0 002 7.131a5.138 5.138 0 005.132 5.132zm0-8.98A3.853 3.853 0 0110.98 7.13a3.853 3.853 0 01-3.85 3.85 3.853 3.853 0 01-3.848-3.85 3.853 3.853 0 013.849-3.848z"/></symbol>
<symbol id="icon-share" viewBox="0 0 16 16"><path d="M11.614 10.482c-.458 0-.867.18-1.18.464l-4.296-2.5c.03-.139.055-.277.055-.422 0-.144-.025-.283-.055-.422l4.247-2.475a1.805 1.805 0 003.036-1.32c0-1-.807-1.807-1.807-1.807-1 0-1.807.807-1.807 1.807 0 .145.024.283.054.422L5.614 6.705a1.805 1.805 0 00-3.036 1.32 1.805 1.805 0 003.036 1.318l4.29 2.506a1.7 1.7 0 00-.049.392c0 .97.79 1.759 1.76 1.759s1.758-.79 1.758-1.759c0-.97-.789-1.76-1.759-1.76z"/></symbol>
<symbol id="icon-skew" viewBox="0 0 16 16"><path d="M12 3.753H6V3.2H4v2.216h.178l-1.4 5.169H2v2.215h2v-.554h6v.554h2v-2.215h-.178l1.4-5.17H14V3.2h-2v.554zm-7.333.185h.666v.738h-.666v-.738zM3.333 12.06h-.666v-.739h.666v.739zm8 0h-.666v-.739h.666v.739zm1.334-8.123h.666v.738h-.666v-.738zm-1.889 6.646H10v.554H4v-.554h-.178l1.4-5.17H6v-.553h6v.554h.178l-1.4 5.169z"/></symbol>
<symbol id="icon-square" viewBox="0 0 16 16"><path fill-rule="evenodd" clip-rule="evenodd" d="M12.4 3.6H3.6v8.8h8.8V3.6zM2 2v12h12V2H2z" fill="currentColor"/></symbol>
<symbol id="icon-star" viewBox="0 0 16 16"><path fill-rule="evenodd" clip-rule="evenodd" d="M12.119 14l-4.12-2.487L3.879 14l1.093-4.687-3.64-3.153 4.793-.407L8 1.333l1.873 4.42 4.793.407-3.64 3.153L12.12 14z"/></symbol>
<symbol id="icon-switch" viewBox="0 0 16 16"><path fill-rule="evenodd" clip-rule="evenodd" d="M9.993 6.667v2L7.333 6l2.66-2.667v2h4.673v1.334H9.993zm-8.66 2.667h4.673v-2L8.666 10l-2.66 2.667v-2H1.333V9.334z"/></symbol>
<symbol id="icon-tag" viewBox="0 0 16 16"><path fill-rule="evenodd" clip-rule="evenodd" d="M10.21 3.58c.424 0 .803.208 1.03.53L14 8l-2.76 3.89a1.26 1.26 0 01-1.03.531l-6.947-.006A1.261 1.261 0 012 11.158V4.842c0-.694.568-1.257 1.263-1.257l6.947-.006zm-6.946 7.577h6.947l2.242-3.158-2.242-3.158H3.264v6.316z"/></symbol>
<symbol id="icon-text-bold" viewBox="0 0 20 20"><path fill-rule="evenodd" clip-rule="evenodd" d="M12.571 9.82c.774-.574 1.316-1.517 1.316-2.391C13.887 5.49 12.492 4 10.697 4H5.715v12h5.614c1.666 0 2.958-1.457 2.958-3.249 0-1.302-.686-2.417-1.715-2.931zM8.106 6.145h2.392c.662 0 1.196.574 1.196 1.285 0 .712-.534 1.286-1.196 1.286H8.106V6.145zm0 7.713h2.791c.662 0 1.196-.575 1.196-1.286 0-.712-.534-1.286-1.196-1.286h-2.79v2.572z"/></symbol>
<symbol id="icon-text-index" viewBox="0 0 20 20"><path d="M13.636 6H6.364v2.4h2.424V14h2.424V8.4h2.424V6z"/></symbol>
<symbol id="icon-text-italic" viewBox="0 0 20 20"><path d="M8.667 4v2.571h1.473L7.86 13.43H6V16h5.333v-2.571H9.86l2.28-6.858H14V4H8.667z"/></symbol>
<symbol id="icon-text-smallcaps" viewBox="0 0 20 20"><path fill-rule="evenodd" clip-rule="evenodd" d="M4 7.053V5.09h8.21v1.964H9.052v7.858H7.158V7.053H4zm6.316 1.308H16v1.965h-1.895v4.583h-1.894v-4.583h-1.895V8.36z"/></symbol>
<symbol id="icon-text-strikethrough" viewBox="0 0 20 20"><path fill-rule="evenodd" clip-rule="evenodd" d="M5.333 5.001v2h3.333v2h2.667v-2h3.333v-2H5.333zm3.333 9.997h2.667v-2H8.666v2zM16 11.67H4v-1.333h12v1.333z"/></symbol>
<symbol id="icon-text-underline" viewBox="0 0 20 20"><path fill-rule="evenodd" clip-rule="evenodd" d="M14.226 9.334c0 2.207-1.895 4-4.225 4-2.331 0-4.225-1.793-4.225-4V4h1.76v5.334c0 1.287 1.106 2.334 2.465 2.334 1.359 0 2.464-1.047 2.464-2.334V4h1.76v5.334zM5.07 16v-1.333h9.858V16H5.071z"/></symbol>
<symbol id="icon-text-uppercase" viewBox="0 0 20 20"><path d="M4 4v2.4h4.714V16h2.572V6.4H16V4H4z"/></symbol>
<symbol id="icon-text" viewBox="0 0 16 16"><path d="M4 3.2h8v1.92H8.923v7.68H7.077V5.12H4V3.2z"/></symbol>
<symbol id="icon-trash" viewBox="0 0 16 16"><path fill-rule="evenodd" clip-rule="evenodd" d="M9.666 2H6.333l-.667.666H3.333V4h9.333V2.666h-2.333L9.666 2zm1 4v6.666H5.333V6h5.333zM4 4.667h8v8c0 .734-.6 1.334-1.333 1.334H5.332C4.6 14 4 13.4 4 12.668v-8z"/></symbol>
<symbol id="icon-triangle" viewBox="0 0 16 16"><path d="M8 3L2 13h12L8 3zm0 2.105l4.107 6.842H3.893"/></symbol>
<symbol id="icon-undo" viewBox="0 0 16 16"><path d="M9.47 5.3H6.53V3.5L3 5.9l3.53 2.4V6.5h2.94c1.295 0 2.353 1.08 2.353 2.4 0 1.32-1.058 2.4-2.352 2.4H6.529v1.2h2.942C11.41 12.5 13 10.88 13 8.9s-1.588-3.6-3.53-3.6z"/></symbol>
<symbol id="icon-unlink" viewBox="0 0 16 16"><path fill-rule="evenodd" clip-rule="evenodd" d="M8.665 4.667h2.667A3.335 3.335 0 0114.665 8c0 1.3-.746 2.407-1.833 2.96l-.973-.973A2.058 2.058 0 0013.399 8c0-1.14-.927-2.067-2.067-2.067H8.665V4.667zm.54 2.666h1.46v1.334h-.126L9.205 7.333zm-5.8-2.413L1.332 2.847 2.179 2l11.153 11.16-.84.84-2.673-2.667H8.665V10.18L7.152 8.667h-1.82V7.333h.487l-1.38-1.38A2.064 2.064 0 002.599 8c0 1.14.926 2.067 2.066 2.067h2.667v1.266H4.665A3.335 3.335 0 011.332 8c0-1.393.86-2.587 2.073-3.08z"/></symbol>
<symbol id="icon-unlock" viewBox="0 0 16 16"><path d="M8 11.334c.733 0 1.333-.6 1.333-1.334 0-.733-.6-1.333-1.334-1.333-.733 0-1.333.6-1.333 1.333 0 .734.6 1.334 1.333 1.334zm4-6h-.667V4a3.335 3.335 0 00-6.667 0h1.267c0-1.14.926-2.066 2.066-2.066 1.14 0 2.067.926 2.067 2.066v1.334H3.999c-.733 0-1.333.6-1.333 1.333v6.667c0 .733.6 1.333 1.333 1.333h8c.734 0 1.334-.6 1.334-1.333V6.667c0-.733-.6-1.333-1.334-1.333zm0 8H4V6.667h8v6.667z"/></symbol>
<symbol id="icon-upload-cloud" viewBox="0 0 52 52"><path d="M38.025 22.75A12.23 12.23 0 0026 13c-4.712 0-8.775 2.6-10.725 6.5-5.037.65-8.775 4.712-8.775 9.75 0 5.362 4.387 9.75 9.75 9.75h21.125c4.55 0 8.125-3.575 8.125-8.125 0-4.225-3.413-7.8-7.475-8.125zm-8.775 4.875v6.5h-6.5v-6.5h-4.875L26 19.5l8.125 8.125H29.25z"/></symbol>
<symbol id="icon-upload" viewBox="0 0 16 16"><path fill-rule="evenodd" clip-rule="evenodd" d="M5.883 6.942H3.059L8 2l4.942 4.94h-2.824v4.236H5.883V6.942zm7.058 5.646H3.059v1.411h9.882v-1.412z"/></symbol>
<symbol id="icon-x-circle-solid" viewBox="0 0 16 16"><path fill-rule="evenodd" clip-rule="evenodd" d="M8 3C5.243 3 3 5.243 3 8s2.243 5 5 5 5-2.243 5-5-2.243-5-5-5zm1.597 3.001l.403.403-1.597 1.597L10 9.598l-.403.403L8 8.404l-1.597 1.597L6 9.598l1.597-1.597L6 6.404l.403-.403L8 7.598l1.597-1.597z"/></symbol>
<symbol id="icon-x" viewBox="0 0 16 16"><path d="M13 4.007L11.993 3 8 6.993 4.007 3 3 4.007 6.993 8 3 11.993 4.007 13 8 9.007 11.993 13 13 11.993 9.007 8 13 4.007z"/></symbol>
</svg>